<?xml version="1.0" encoding="utf-8"?>
<!-- Generator: Adobe Illustrator 16.0.0, SVG Export Plug-In . SVG Version: 6.00 Build 0)  -->
<!DOCTYPE svg PUBLIC "-//W3C//DTD SVG 1.1//EN" "http://www.w3.org/Graphics/SVG/1.1/DTD/svg11.dtd">
<svg version="1.1" id="레이어_1" xmlns="http://www.w3.org/2000/svg" xmlns:xlink="http://www.w3.org/1999/xlink" x="0px"
	 y="0px" width="15px" height="14px" viewBox="0 0 15 14" enable-background="new 0 0 15 14" xml:space="preserve">
<path fill="#666666" d="M6.21,13.21c-0.104,0-0.203-0.04-0.278-0.111L0.316,7.75C0.109,7.542,0,7.283,0,7
	c0-0.278,0.108-0.541,0.306-0.739l5.626-5.359C6.007,0.83,6.105,0.79,6.21,0.79c0.111,0,0.215,0.044,0.292,0.125
	c0.153,0.161,0.147,0.417-0.014,0.57L1.121,6.597h13.478C14.82,6.597,15,6.778,15,7s-0.18,0.403-0.401,0.403H1.1l5.389,5.112
	c0.161,0.152,0.167,0.407,0.014,0.568C6.425,13.166,6.321,13.21,6.21,13.21z"/>
</svg>
