<?xml version="1.0" encoding="utf-8"?>
<!-- Generator: Adobe Illustrator 16.0.0, SVG Export Plug-In . SVG Version: 6.00 Build 0)  -->
<!DOCTYPE svg PUBLIC "-//W3C//DTD SVG 1.1//EN" "http://www.w3.org/Graphics/SVG/1.1/DTD/svg11.dtd">
<svg version="1.1" id="레이어_1" xmlns="http://www.w3.org/2000/svg" xmlns:xlink="http://www.w3.org/1999/xlink" x="0px"
	 y="0px" width="15px" height="15px" viewBox="0 0 15 15" enable-background="new 0 0 15 15" xml:space="preserve">
<g>
	<g>
		<path fill="#666666" d="M14.555,15c-0.119,0-0.23-0.046-0.314-0.131L7.5,8.129l-6.74,6.74C0.675,14.954,0.564,15,0.445,15
			c-0.119,0-0.23-0.046-0.314-0.131C0.046,14.786,0,14.675,0,14.555c0-0.119,0.046-0.23,0.13-0.313L6.871,7.5L0.13,0.76
			C0.046,0.675,0,0.563,0,0.445S0.046,0.214,0.13,0.13C0.215,0.046,0.326,0,0.445,0c0.119,0,0.23,0.046,0.315,0.13L7.5,6.871
			l6.74-6.741C14.324,0.046,14.436,0,14.555,0s0.23,0.046,0.314,0.13c0.174,0.173,0.174,0.456,0,0.629L8.129,7.5l6.74,6.741
			C14.953,14.324,15,14.436,15,14.555c0,0.12-0.047,0.231-0.131,0.314C14.785,14.954,14.674,15,14.555,15z"/>
	</g>
</g>
</svg>
