<?xml version="1.0" encoding="utf-8"?>
<!-- Generator: Adobe Illustrator 16.0.0, SVG Export Plug-In . SVG Version: 6.00 Build 0)  -->
<!DOCTYPE svg PUBLIC "-//W3C//DTD SVG 1.1//EN" "http://www.w3.org/Graphics/SVG/1.1/DTD/svg11.dtd">
<svg version="1.1" xmlns="http://www.w3.org/2000/svg" xmlns:xlink="http://www.w3.org/1999/xlink" x="0px" y="0px" width="50px"
	 height="50px" viewBox="0 0 50 50" enable-background="new 0 0 50 50" xml:space="preserve">
<g id="레이어_1" display="none">
	<g id="레이어_1_1_">
		<path display="inline" fill="#555555" d="M72.064,43.927c-12.11,0-21.964-9.852-21.964-21.963C50.101,9.854,59.954,0,72.064,0
			c12.112,0,21.963,9.853,21.963,21.963C94.029,34.075,84.177,43.927,72.064,43.927z M72.064,3.215
			c-10.339,0-18.75,8.411-18.75,18.75c0,10.34,8.411,18.75,18.75,18.75c10.34,0,18.75-8.41,18.75-18.75
			C90.815,11.625,82.404,3.215,72.064,3.215z"/>
		<path display="inline" fill="#555555" d="M98.494,50c-0.429,0-0.832-0.168-1.136-0.473L85.49,37.66
			c-0.305-0.303-0.472-0.706-0.472-1.137s0.167-0.832,0.472-1.138c0.303-0.304,0.707-0.471,1.135-0.471
			c0.432,0,0.834,0.167,1.139,0.471l11.867,11.869c0.304,0.306,0.471,0.709,0.471,1.138c0,0.432-0.167,0.834-0.471,1.138
			C99.326,49.832,98.924,50,98.494,50z"/>
	</g>
	<g id="레이어_2">
		<path display="inline" fill="#555555" d="M51.906,26.807c-0.995,0-1.806-0.812-1.806-1.807s0.811-1.805,1.806-1.805h46.391
			c0.994,0,1.805,0.81,1.805,1.805s-0.811,1.807-1.805,1.807H51.906z"/>
		<path display="inline" fill="#555555" d="M51.906,10.639c-0.995,0-1.806-0.81-1.806-1.805s0.811-1.805,1.806-1.805h46.391
			c0.994,0,1.805,0.81,1.805,1.805s-0.811,1.805-1.805,1.805H51.906z"/>
		<path display="inline" fill="#555555" d="M51.906,42.973c-0.995,0-1.806-0.812-1.806-1.807c0-0.996,0.811-1.807,1.806-1.807
			h46.391c0.996,0,1.806,0.811,1.806,1.807c0,0.995-0.81,1.807-1.806,1.807H51.906z"/>
	</g>
	<g id="레이어_3">
		<g display="inline">
			<g>
				<path fill="#555555" d="M96.754,50.003C96.592,38.2,86.941,28.65,75.102,28.65c-11.841,0-21.492,9.55-21.654,21.353H50.1
					c0.078-6.565,2.671-12.726,7.321-17.377c2.717-2.715,5.913-4.721,9.501-5.959l0.568-0.196l-0.494-0.341
					c-3.896-2.683-6.224-7.096-6.224-11.806c0-7.9,6.429-14.327,14.328-14.327s14.326,6.427,14.326,14.327
					c0,4.709-2.325,9.123-6.22,11.806l-0.496,0.341l0.568,0.196c3.588,1.239,6.783,3.244,9.5,5.959
					c4.649,4.651,7.243,10.813,7.321,17.377H96.754z M75.102,3.345c-6.055,0-10.979,4.925-10.979,10.979
					c0,6.054,4.925,10.98,10.979,10.98S86.08,20.379,86.08,14.325C86.08,8.271,81.156,3.345,75.102,3.345z"/>
			</g>
		</g>
	</g>
	<g id="레이어_4" display="inline">
		<path fill="#555555" d="M75.102,50.1C61.261,50.1,50,38.84,50,25S61.261-0.1,75.102-0.1c13.84,0,25.1,11.26,25.1,25.1
			S88.941,50.1,75.102,50.1z M75.102,3.225c-12.007,0-21.775,9.768-21.775,21.775s9.769,21.775,21.775,21.775
			c12.006,0,21.773-9.77,21.773-21.775S87.108,3.225,75.102,3.225z"/>
		<path fill="#555555" d="M74.224,28.898c-0.912,0-1.653-0.741-1.653-1.652V13.574c0-0.912,0.742-1.653,1.653-1.653
			s1.653,0.742,1.653,1.653v12.019h8.111c0.912,0,1.653,0.742,1.653,1.653s-0.741,1.652-1.653,1.652H74.224z"/>
	</g>
</g>
<g id="레이어_2_1_">
	<path fill="#555555" d="M18.482,33.421c-0.68,0-1.269-0.435-1.465-1.083L8.79,5.373L1.544,5.642C0.689,5.643,0,4.956,0,4.111
		s0.688-1.532,1.532-1.532h8.474c0.675,0,1.264,0.436,1.463,1.084l8.227,26.969l21.608-0.271l5.114-15.865l-24.402,0.238
		c-0.847,0-1.534-0.688-1.534-1.533s0.688-1.532,1.532-1.532h26.456c0.494,0,0.957,0.239,1.239,0.641
		c0.291,0.404,0.369,0.924,0.207,1.388l-6.338,18.686c-0.214,0.622-0.795,1.037-1.447,1.037H18.482z"/>
	<path fill="#555555" d="M18.482,33.21c-0.586,0-1.093-0.372-1.263-0.934L8.944,5.157L1.536,5.431c-0.731,0-1.325-0.593-1.325-1.32
		s0.594-1.321,1.321-1.321h8.474c0.583,0,1.09,0.376,1.262,0.935l8.273,27.118l21.917-0.274l5.25-16.287l-24.694,0.239
		c-0.727,0-1.321-0.594-1.321-1.321c0-0.727,0.594-1.32,1.321-1.32h26.456c0.421,0,0.824,0.206,1.067,0.55
		c0.249,0.347,0.32,0.793,0.18,1.198L43.38,32.316c-0.185,0.533-0.689,0.894-1.248,0.894H18.482z"/>
	<path fill="#555555" d="M20.494,47.107c-3.036,0-5.506-2.471-5.506-5.508c0-3.033,2.47-5.502,5.506-5.502
		c3.034,0,5.503,2.469,5.503,5.502C25.997,44.637,23.528,47.107,20.494,47.107z M20.494,38.974c-1.449,0-2.627,1.178-2.627,2.626
		c0,1.449,1.178,2.628,2.627,2.628c1.448,0,2.626-1.179,2.626-2.628c0.001-0.699-0.271-1.357-0.768-1.854
		C21.855,39.247,21.195,38.974,20.494,38.974z"/>
	<path fill="#555555" d="M20.494,46.908c-2.926,0-5.307-2.381-5.307-5.309c0-2.924,2.381-5.303,5.307-5.303
		c2.925,0,5.304,2.377,5.304,5.303C25.798,44.527,23.419,46.908,20.494,46.908z M20.494,38.774c-1.557,0-2.826,1.268-2.826,2.825
		c0,1.56,1.269,2.827,2.826,2.827c1.558,0,2.825-1.268,2.825-2.827C23.321,40.044,22.052,38.774,20.494,38.774z"/>
	<path fill="#555555" d="M39.421,47.107c-3.036,0-5.506-2.471-5.506-5.508c0-3.033,2.47-5.502,5.506-5.502s5.506,2.469,5.506,5.502
		C44.927,44.637,42.457,47.107,39.421,47.107z M39.421,38.974c-1.449,0-2.628,1.178-2.628,2.626c0,1.449,1.179,2.628,2.628,2.628
		s2.627-1.179,2.627-2.628C42.048,40.151,40.87,38.974,39.421,38.974z"/>
	<path fill="#555555" d="M39.421,46.908c-2.926,0-5.308-2.381-5.308-5.309c0-2.924,2.382-5.303,5.308-5.303
		c2.929,0,5.307,2.377,5.307,5.303C44.728,44.527,42.35,46.908,39.421,46.908z M39.421,38.774c-1.557,0-2.826,1.268-2.826,2.825
		c0,1.56,1.27,2.827,2.826,2.827c1.56,0,2.826-1.268,2.826-2.827C42.247,40.044,40.98,38.774,39.421,38.774z"/>
</g>
</svg>
