<?xml version="1.0" encoding="utf-8"?>
<!-- Generator: Adobe Illustrator 16.0.0, SVG Export Plug-In . SVG Version: 6.00 Build 0)  -->
<!DOCTYPE svg PUBLIC "-//W3C//DTD SVG 1.1//EN" "http://www.w3.org/Graphics/SVG/1.1/DTD/svg11.dtd">
<svg version="1.1" id="레이어_1" xmlns="http://www.w3.org/2000/svg" xmlns:xlink="http://www.w3.org/1999/xlink" x="0px"
	 y="0px" width="50px" height="50px" viewBox="0 0 50 50" enable-background="new 0 0 50 50" xml:space="preserve">
<g id="레이어_1_1_" display="none">
	<path display="inline" fill="#555555" d="M21.963,43.927C9.853,43.927,0,34.075,0,21.964C0,9.854,9.853,0,21.963,0
		c12.112,0,21.963,9.853,21.963,21.963C43.928,34.075,34.075,43.927,21.963,43.927z M21.963,3.215
		c-10.338,0-18.749,8.411-18.749,18.75c0,10.34,8.411,18.75,18.749,18.75c10.34,0,18.75-8.41,18.75-18.75
		C40.714,11.625,32.303,3.215,21.963,3.215z"/>
	<path display="inline" fill="#555555" d="M48.393,50c-0.429,0-0.832-0.168-1.136-0.473L35.389,37.66
		c-0.305-0.303-0.472-0.706-0.472-1.137s0.167-0.832,0.472-1.138c0.303-0.304,0.707-0.471,1.135-0.471
		c0.432,0,0.834,0.167,1.139,0.471l11.867,11.869C49.833,47.561,50,47.964,50,48.393c0,0.432-0.167,0.834-0.471,1.138
		C49.225,49.832,48.822,50,48.393,50z"/>
</g>
<g id="레이어_2" display="none">
	<path display="inline" fill="#555555" d="M1.806,26.807C0.811,26.807,0,25.995,0,25s0.811-1.805,1.806-1.805h46.389
		C49.189,23.195,50,24.005,50,25s-0.811,1.807-1.805,1.807H1.806z"/>
	<path display="inline" fill="#555555" d="M1.806,10.639C0.811,10.639,0,9.829,0,8.834s0.811-1.805,1.806-1.805h46.389
		c0.994,0,1.805,0.81,1.805,1.805s-0.811,1.805-1.805,1.805H1.806z"/>
	<path display="inline" fill="#555555" d="M1.806,42.973C0.811,42.973,0,42.161,0,41.166c0-0.996,0.811-1.807,1.806-1.807h46.389
		c0.996,0,1.806,0.811,1.806,1.807c0,0.995-0.81,1.807-1.806,1.807H1.806z"/>
</g>
<g id="레이어_3" display="none">
	<g display="inline">
		<g>
			<path fill="#555555" d="M46.652,50.003C46.49,38.2,36.84,28.65,25,28.65S3.509,38.2,3.347,50.003h-3.348
				C0.077,43.438,2.67,37.277,7.32,32.626c2.717-2.715,5.913-4.721,9.501-5.959l0.568-0.196l-0.494-0.341
				c-3.896-2.683-6.223-7.096-6.223-11.806c0-7.9,6.428-14.327,14.327-14.327c7.899,0,14.326,6.427,14.326,14.327
				c0,4.709-2.325,9.123-6.22,11.806l-0.496,0.341l0.568,0.196c3.588,1.239,6.783,3.244,9.5,5.959
				c4.649,4.651,7.243,10.813,7.321,17.377H46.652z M25,3.345c-6.054,0-10.979,4.925-10.979,10.979
				c0,6.054,4.925,10.98,10.979,10.98c6.055,0,10.979-4.925,10.979-10.979C35.979,8.271,31.055,3.345,25,3.345z"/>
		</g>
	</g>
</g>
<g id="레이어_4" display="none">
	<path display="inline" fill="#555555" d="M25,50.1C11.16,50.1-0.1,38.84-0.1,25S11.16-0.1,25-0.1S50.1,11.16,50.1,25
		S38.84,50.1,25,50.1z M25,3.225C12.994,3.225,3.226,12.993,3.226,25S12.994,46.775,25,46.775S46.773,37.006,46.773,25
		S37.007,3.225,25,3.225z"/>
	<path display="inline" fill="#555555" d="M24.122,28.898c-0.912,0-1.653-0.741-1.653-1.652V13.574c0-0.912,0.742-1.653,1.653-1.653
		s1.653,0.742,1.653,1.653v12.019h8.111c0.912,0,1.653,0.742,1.653,1.653s-0.741,1.652-1.653,1.652H24.122z"/>
</g>
<g id="레이어_6">
	<linearGradient id="SVGID_1_" gradientUnits="userSpaceOnUse" x1="7.3228" y1="42.6777" x2="42.678" y2="7.3225">
		<stop  offset="0" style="stop-color:#2622C9"/>
		<stop  offset="1" style="stop-color:#3B37E3"/>
	</linearGradient>
	<circle fill="url(#SVGID_1_)" cx="25" cy="25" r="25"/>
</g>
<g id="레이어_5">
	<path fill="#FFFFFF" d="M39.193,22.049c0-0.001,0-0.002-0.002-0.002L26.953,9.808c-0.521-0.522-1.217-0.81-1.953-0.81
		c-0.738,0-1.431,0.288-1.953,0.81L10.814,22.04c-0.004,0.004-0.008,0.009-0.013,0.013c-1.071,1.077-1.069,2.826,0.005,3.899
		c0.491,0.491,1.139,0.776,1.833,0.807c0.028,0.003,0.056,0.005,0.085,0.005h0.488v9.006c0,1.782,1.45,3.232,3.233,3.232h4.788
		c0.485,0,0.879-0.395,0.879-0.879v-7.063c0-0.813,0.662-1.475,1.475-1.475h2.824c0.813,0,1.476,0.662,1.476,1.475v7.063
		c0,0.484,0.393,0.879,0.879,0.879h4.789c1.781,0,3.231-1.45,3.231-3.232v-9.006h0.452c0.736,0,1.432-0.287,1.953-0.811
		C40.27,24.877,40.27,23.125,39.193,22.049z M37.949,24.71c-0.189,0.19-0.441,0.295-0.711,0.295h-1.33
		c-0.485,0-0.879,0.394-0.879,0.879v9.886c0,0.813-0.662,1.476-1.475,1.476h-3.91v-6.183c0-1.783-1.449-3.233-3.232-3.233h-2.824
		c-1.783,0-3.233,1.45-3.233,3.233v6.183h-3.909c-0.813,0-1.475-0.661-1.475-1.476v-9.886c0-0.485-0.394-0.879-0.879-0.879h-1.309
		c-0.014-0.001-0.027-0.002-0.041-0.002c-0.262-0.004-0.507-0.108-0.692-0.293c-0.391-0.391-0.391-1.029,0-1.42l0,0h0.001
		l12.24-12.24c0.189-0.189,0.441-0.294,0.709-0.294c0.269,0,0.521,0.104,0.71,0.294l12.235,12.236
		c0.002,0.002,0.004,0.003,0.006,0.005C38.341,23.684,38.34,24.32,37.949,24.71z"/>
</g>
</svg>
