<?xml version="1.0" encoding="utf-8"?>
<!-- Generator: Adobe Illustrator 16.0.0, SVG Export Plug-In . SVG Version: 6.00 Build 0)  -->
<!DOCTYPE svg PUBLIC "-//W3C//DTD SVG 1.1//EN" "http://www.w3.org/Graphics/SVG/1.1/DTD/svg11.dtd">
<svg version="1.1" xmlns="http://www.w3.org/2000/svg" xmlns:xlink="http://www.w3.org/1999/xlink" x="0px" y="0px" width="50px"
	 height="50px" viewBox="0 0 50 50" enable-background="new 0 0 50 50" xml:space="preserve">
<g id="레이어_1">
	<path fill="#555555" d="M21.963,43.927C9.853,43.927,0,34.075,0,21.964C0,9.854,9.853,0,21.963,0
		c12.112,0,21.963,9.853,21.963,21.963C43.928,34.075,34.075,43.927,21.963,43.927z M21.963,3.215
		c-10.338,0-18.749,8.411-18.749,18.75c0,10.34,8.411,18.75,18.749,18.75c10.34,0,18.75-8.41,18.75-18.75
		C40.714,11.625,32.303,3.215,21.963,3.215z"/>
	<path fill="#555555" d="M48.393,50c-0.429,0-0.832-0.168-1.136-0.473L35.389,37.66c-0.305-0.303-0.472-0.706-0.472-1.137
		c0-0.43,0.167-0.832,0.472-1.137c0.303-0.304,0.707-0.471,1.135-0.471c0.431,0,0.834,0.167,1.138,0.471l11.868,11.869
		C49.833,47.561,50,47.964,50,48.393c0,0.431-0.167,0.834-0.471,1.137C49.225,49.832,48.822,50,48.393,50z"/>
</g>
<g id="레이어_2" display="none">
	<path display="inline" fill="#555555" d="M1.806,26.806C0.811,26.806,0,25.995,0,25s0.811-1.805,1.806-1.805h46.39
		C49.19,23.195,50,24.005,50,25s-0.81,1.806-1.805,1.806H1.806z"/>
	<path display="inline" fill="#555555" d="M1.806,10.639C0.811,10.639,0,9.829,0,8.834s0.811-1.805,1.806-1.805h46.39
		C49.19,7.029,50,7.839,50,8.834s-0.81,1.805-1.805,1.805H1.806z"/>
	<path display="inline" fill="#555555" d="M1.806,42.972C0.811,42.972,0,42.161,0,41.166c0-0.996,0.811-1.806,1.806-1.806h46.39
		c0.995,0,1.805,0.81,1.805,1.806c0,0.995-0.81,1.806-1.805,1.806H1.806z"/>
</g>
</svg>
