<?xml version="1.0" encoding="utf-8"?>
<!-- Generator: Adobe Illustrator 16.0.0, SVG Export Plug-In . SVG Version: 6.00 Build 0)  -->
<!DOCTYPE svg PUBLIC "-//W3C//DTD SVG 1.1//EN" "http://www.w3.org/Graphics/SVG/1.1/DTD/svg11.dtd">
<svg version="1.1" id="레이어_1" xmlns="http://www.w3.org/2000/svg" xmlns:xlink="http://www.w3.org/1999/xlink" x="0px"
	 y="0px" width="15px" height="14px" viewBox="0 0 15 14" enable-background="new 0 0 15 14" xml:space="preserve">
<path fill="#666666" d="M8.498,13.084c-0.153-0.161-0.147-0.416,0.014-0.568L13.9,7.403H0.401C0.18,7.403,0,7.222,0,7
	s0.18-0.403,0.401-0.403h13.478L8.512,1.485c-0.161-0.153-0.167-0.409-0.014-0.57C8.575,0.834,8.679,0.79,8.79,0.79
	c0.104,0,0.203,0.04,0.278,0.111l5.626,5.359C14.892,6.459,15,6.722,15,7c0,0.283-0.109,0.542-0.316,0.75l-5.615,5.349
	C8.993,13.17,8.894,13.21,8.79,13.21C8.679,13.21,8.575,13.166,8.498,13.084z"/>
</svg>
