<?xml version="1.0" encoding="utf-8"?>
<!-- Generator: Adobe Illustrator 16.0.0, SVG Export Plug-In . SVG Version: 6.00 Build 0)  -->
<!DOCTYPE svg PUBLIC "-//W3C//DTD SVG 1.1//EN" "http://www.w3.org/Graphics/SVG/1.1/DTD/svg11.dtd">
<svg version="1.1" id="레이어_1" xmlns="http://www.w3.org/2000/svg" xmlns:xlink="http://www.w3.org/1999/xlink" x="0px"
	 y="0px" width="355.567px" height="55px" viewBox="0 0 355.567 55" enable-background="new 0 0 355.567 55" xml:space="preserve">
<path fill="#2D388E" d="M85.74,36.699c-0.202,0.631-0.322,1.046-0.369,1.247c-0.08,0.233-0.203,0.675-0.37,1.309
	c-0.612,2.183-1.333,4.127-2.16,5.826c-0.823,1.705-1.866,3.198-3.106,4.479c-1.247,1.286-2.721,2.275-4.439,2.976
	c-1.714,0.703-3.697,1.043-5.963,1.027c-4.334-0.031-7.368-0.896-9.108-2.577c-1.737-1.684-2.592-4.154-2.563-7.411
	c0.014-2.387,0.562-5.967,1.635-10.725l1.424-6.367C61.576,23.03,62.41,20.202,63.2,18c0.797-2.2,1.848-4.161,3.175-5.877
	c1.326-1.72,3.066-3.05,5.219-3.981c2.153-0.94,4.843-1.394,8.061-1.372c6.637,0.179,9.935,3.218,9.888,9.143
	c-0.007,0.754-0.076,1.591-0.2,2.505c-0.17,1.466-0.362,2.601-0.565,3.396l-8.225-0.063c0.037-0.325,0.099-0.796,0.182-1.436
	C80.905,18.924,81,17.891,81,17.217c0.014-1.154-0.189-2.06-0.602-2.723c-0.409-0.655-1.156-0.989-2.228-0.998
	c-1.428-0.01-2.642,0.329-3.643,1.015c-1.004,0.69-1.805,1.563-2.41,2.635c-0.605,1.071-1.069,2.128-1.396,3.183
	c-0.326,1.049-0.609,2.267-0.863,3.66L69.677,24.7l-2.722,12.383c-0.207,0.876-0.362,1.693-0.467,2.443
	c-0.109,0.755-0.164,1.468-0.167,2.146c-0.014,1.549,0.319,2.792,0.986,3.735c0.667,0.94,1.834,1.412,3.501,1.431
	c0.953,0.001,1.772-0.263,2.457-0.817c0.682-0.55,1.248-1.273,1.718-2.163c0.457-0.896,0.834-1.796,1.12-2.71
	c0.287-0.907,0.573-1.963,0.863-3.147c0.163-0.677,0.283-1.133,0.366-1.37L85.74,36.699z"/>
<path fill="#2D388E" d="M88.002,52.634l9.834-44.648l8.344,0.073l-3.893,17.674l11.686,0.09l3.897-17.673l8.347,0.064l-9.833,44.641
	l-8.344-0.059l4.513-20.421l-11.689-0.096L96.35,52.706L88.002,52.634z"/>
<path fill="#2D388E" d="M123.307,52.915l9.83-44.65l23.495,0.19l-1.429,6.543l-15.14-0.124l-2.476,11.256l13.955,0.112l-1.421,6.549
	l-13.954-0.11l-3.089,13.752l15.147,0.12l-1.428,6.545L123.307,52.915z"/>
<path fill="#2D388E" d="M157.794,27.243c0.859-3.451,1.69-6.276,2.479-8.475c0.794-2.204,1.852-4.164,3.179-5.88
	c1.322-1.72,3.065-3.047,5.214-3.984c2.158-0.936,4.848-1.394,8.065-1.366c2.226,0.019,4.088,0.257,5.604,0.727
	c1.501,0.473,2.69,1.145,3.564,2.022c0.865,0.883,1.48,1.934,1.848,3.148c0.369,1.212,0.55,2.64,0.535,4.267
	c-0.017,2.15-0.441,5.407-1.271,9.772l-1.424,6.373c-0.824,3.568-1.618,6.51-2.393,8.809c-0.775,2.294-1.834,4.333-3.178,6.114
	c-1.351,1.777-3.117,3.152-5.313,4.135c-2.197,0.975-4.953,1.45-8.301,1.42c-4.329-0.031-7.366-0.888-9.098-2.574
	c-1.741-1.679-2.592-4.152-2.57-7.413c0.022-2.387,0.562-5.963,1.638-10.722L157.794,27.243z M164.029,37.849
	c-0.203,0.875-0.358,1.692-0.464,2.439c-0.104,0.757-0.163,1.472-0.17,2.149c-0.007,1.549,0.323,2.793,0.986,3.73
	c0.67,0.943,1.838,1.418,3.509,1.433c1.437,0.006,2.64-0.296,3.618-0.928c0.978-0.625,1.758-1.445,2.345-2.452
	c0.584-1.014,1.051-2.063,1.395-3.154c0.349-1.091,0.664-2.367,0.953-3.837l2.538-11.426l0.063-0.303
	c0.241-1.071,0.453-2.074,0.619-3.008c0.166-0.932,0.25-1.86,0.257-2.77c0.015-1.632-0.315-2.944-0.982-3.947
	c-0.667-0.995-1.814-1.502-3.447-1.518c-1.428-0.007-2.641,0.332-3.643,1.022c-0.996,0.683-1.801,1.564-2.406,2.628
	c-0.602,1.075-1.073,2.131-1.396,3.182c-0.326,1.053-0.616,2.276-0.867,3.664l-0.188,0.712L164.029,37.849z"/>
<path fill="#2D388E" d="M217.814,8.931l8.351,0.064l-9.83,44.652l-8.71-0.067l-2.979-15.946c-0.537-2.59-0.96-5.319-1.275-8.185
	c-0.315-2.86-0.577-6.068-0.787-9.604l-0.123-0.003c-0.417,2.941-0.758,5.291-1.008,7.061c-0.253,1.768-0.543,3.664-0.877,5.691
	c-0.421,2.496-0.815,4.751-1.189,6.754c-0.376,2.007-0.766,3.925-1.175,5.749l-1.858,8.394l-8.351-0.063l9.836-44.65l8.645,0.069
	l2.915,16.299c0.496,2.549,0.917,5.239,1.25,8.06c0.333,2.829,0.605,6.074,0.818,9.728l0.117,0.003
	c0.715-4.923,1.362-9.153,1.946-12.687c0.834-5.001,1.624-9.193,2.369-12.565L217.814,8.931z"/>
<path fill="#2D388E" d="M242.366,20.93c0.342,1.944,0.508,3.789,0.493,5.527c0,0.161,0,0.401,0,0.727
	c-0.051,0.322-0.068,0.566-0.068,0.73h0.12c0.561-1.414,1.151-2.673,1.757-3.781c0.605-1.104,1.367-2.407,2.29-3.891l0.547-0.911
	l6.222-10.26l9.127,0.072l-17.436,26.006l-4.203,19.314l-8.349-0.064l4.201-19.317l-5.998-26.191l9.119,0.071L242.366,20.93z"/>
<path fill="#2D388E" d="M286.707,9.327l8.348,0.069l-6.869,31.125c-1.108,5.126-2.958,8.829-5.538,11.111
	c-2.581,2.292-6.521,3.414-11.806,3.366c-4.212-0.034-7.238-0.768-9.077-2.217c-1.837-1.44-2.75-3.697-2.725-6.758
	c0.01-1.553,0.269-3.457,0.762-5.719l6.867-31.134l8.349,0.066l-6.684,30.417c-0.41,1.826-0.62,3.237-0.625,4.23
	c-0.017,1.394,0.338,2.469,1.049,3.228c0.707,0.764,1.913,1.148,3.624,1.164c1.313,0.01,2.408-0.218,3.287-0.69
	c0.878-0.474,1.592-1.092,2.132-1.86c0.539-0.773,0.976-1.638,1.301-2.585c0.327-0.952,0.636-2.085,0.925-3.393L286.707,9.327z"/>
<path fill="#2D388E" d="M291.234,54.09l0.837-3.8l3.807,0.026l-0.834,3.798L291.234,54.09z"/>
<path fill="#2D388E" d="M313.957,46.571c-0.098,0.303-0.151,0.508-0.175,0.599c-0.035,0.11-0.102,0.329-0.182,0.632
	c-0.293,1.059-0.641,1.999-1.043,2.817c-0.398,0.824-0.899,1.549-1.501,2.17c-0.602,0.619-1.318,1.098-2.146,1.438
	c-0.83,0.341-1.79,0.503-2.886,0.5c-2.094-0.016-3.565-0.435-4.402-1.244c-0.843-0.82-1.255-2.012-1.243-3.589
	c0.01-1.153,0.274-2.884,0.797-5.188l0.682-3.081c0.416-1.665,0.818-3.035,1.199-4.099c0.384-1.064,0.902-2.009,1.544-2.842
	c0.634-0.832,1.476-1.476,2.523-1.924c1.033-0.453,2.333-0.675,3.893-0.667c3.208,0.089,4.803,1.561,4.776,4.422
	c-0.003,0.365-0.032,0.769-0.089,1.208c-0.093,0.713-0.175,1.257-0.273,1.646l-3.979-0.027c0.015-0.163,0.052-0.388,0.087-0.697
	c0.083-0.677,0.127-1.174,0.134-1.499c0-0.557-0.098-0.995-0.297-1.312c-0.199-0.319-0.554-0.48-1.077-0.483
	c-0.691-0.007-1.285,0.156-1.765,0.486c-0.479,0.337-0.866,0.757-1.163,1.274c-0.29,0.516-0.512,1.031-0.671,1.54
	c-0.159,0.507-0.298,1.103-0.42,1.768l-0.083,0.351l-1.319,5.987c-0.103,0.416-0.183,0.815-0.225,1.178
	c-0.049,0.367-0.081,0.713-0.084,1.037c-0.007,0.751,0.155,1.353,0.475,1.804c0.329,0.461,0.891,0.688,1.7,0.695
	c0.459,0,0.858-0.13,1.178-0.396c0.33-0.266,0.608-0.61,0.834-1.047c0.225-0.431,0.405-0.864,0.547-1.309
	c0.131-0.441,0.274-0.949,0.409-1.522c0.08-0.327,0.146-0.545,0.175-0.662L313.957,46.571z"/>
<path fill="#2D388E" d="M317.629,41.753c0.416-1.674,0.815-3.036,1.203-4.101c0.381-1.063,0.892-2.013,1.532-2.841
	c0.646-0.83,1.483-1.474,2.528-1.929c1.039-0.456,2.341-0.673,3.896-0.663c1.076,0.007,1.983,0.129,2.707,0.354
	c0.732,0.228,1.306,0.555,1.727,0.98c0.412,0.428,0.716,0.937,0.896,1.521c0.177,0.584,0.264,1.277,0.257,2.063
	c-0.007,1.035-0.21,2.615-0.616,4.722l-0.686,3.079c-0.401,1.728-0.787,3.152-1.16,4.259c-0.372,1.111-0.888,2.102-1.533,2.966
	c-0.647,0.859-1.512,1.526-2.573,1.996c-1.058,0.467-2.396,0.706-4.016,0.688c-2.089-0.016-3.557-0.431-4.4-1.246
	c-0.838-0.813-1.25-2.008-1.236-3.583c0.006-1.156,0.274-2.886,0.79-5.188L317.629,41.753z M320.648,46.882
	c-0.106,0.417-0.175,0.815-0.229,1.183c-0.05,0.357-0.075,0.707-0.078,1.029c-0.008,0.754,0.154,1.355,0.47,1.813
	c0.325,0.452,0.893,0.684,1.699,0.688c0.698,0.005,1.277-0.144,1.756-0.447c0.464-0.303,0.852-0.7,1.127-1.189
	c0.283-0.482,0.51-0.991,0.678-1.52c0.171-0.53,0.318-1.148,0.46-1.858l1.229-5.524l0.023-0.147
	c0.125-0.517,0.222-1.001,0.306-1.453c0.08-0.449,0.117-0.896,0.127-1.34c0.004-0.791-0.155-1.424-0.478-1.903
	c-0.322-0.486-0.878-0.73-1.668-0.737c-0.692-0.006-1.28,0.16-1.762,0.488c-0.486,0.337-0.874,0.759-1.159,1.275
	c-0.302,0.517-0.522,1.029-0.678,1.538c-0.163,0.508-0.301,1.097-0.422,1.77l-0.087,0.347L320.648,46.882z"/>
<path fill="#2D388E" d="M336.253,54.439l-4.039-0.029l4.756-21.594l6.423,0.056l-0.048,10.031c-0.01,1.458-0.119,3.124-0.325,4.987
	h0.058c0.409-1.34,0.735-2.339,0.956-3.005c0.232-0.664,0.486-1.316,0.758-1.968l4.376-10.001l6.4,0.052l-4.756,21.583l-4.042-0.027
	l1.501-6.793c1.056-4.743,2.118-9.029,3.188-12.863h-0.055l-8.667,19.623l-2.453-0.018l0.098-19.693h-0.146
	c-0.601,3.8-1.435,8.091-2.488,12.865L336.253,54.439z"/>
<g>
	<path fill="#2D388E" d="M38.388,55c-0.234,0-0.467-0.035-0.693-0.104L3.056,44.414c-0.61-0.184-1.112-0.595-1.413-1.157
		s-0.365-1.209-0.18-1.82l5.054-16.693l-0.036-0.017c-1.243-0.392-1.945-1.717-1.568-2.969l3.339-11.033
		c0.302-0.998,1.242-1.695,2.285-1.695c0.234,0,0.467,0.035,0.691,0.104l39.382,11.916c0.611,0.185,1.113,0.597,1.414,1.159
		c0.3,0.563,0.364,1.209,0.178,1.819l-3.337,11.031c-0.309,1.015-1.226,1.697-2.283,1.697l0,0c-0.228,0-0.454-0.033-0.674-0.098
		l-0.189-0.036l-5.047,16.682C40.364,54.319,39.446,55,38.388,55z M36.441,50.054l4.472-14.773l-12.357-3.74l-4.469,14.774
		L36.441,50.054z M19.298,44.865l4.474-14.774L11.315,26.32L6.843,41.096L19.298,44.865z M44.221,32.605l2.487-8.217l-14.645-4.432
		l-2.487,8.218L44.221,32.605z M24.789,26.726l2.487-8.218L12.511,14.04l-2.487,8.218L24.789,26.726z"/>
	<path fill="#2D388E" d="M37.206,14.407l4.395-6.131c0,0,0.139-0.299-0.01-0.511c-0.176-0.25-0.756-0.086-0.756-0.086l-5.35,1.665
		l-0.839-4.93c0,0-0.106-0.553-0.382-0.638c-0.365-0.113-0.788,0.255-0.788,0.255l-3.637,3.306L26.2,3.043
		c0,0-0.21-0.292-0.468-0.191c-0.276,0.106-0.255,0.447-0.255,0.447l0.209,7.609L37.206,14.407z"/>
	<path fill="#2D388E" d="M26.186,1.287c-0.152,0.543-0.708,0.863-1.253,0.714c-0.543-0.147-0.862-0.706-0.718-1.249
		c0.148-0.545,0.71-0.864,1.252-0.716C26.01,0.183,26.332,0.743,26.186,1.287z"/>
	<circle fill="#2D388E" cx="34.839" cy="1.594" r="1.018"/>
	<path fill="#2D388E" d="M44.02,6.696c-0.149,0.543-0.708,0.863-1.25,0.717c-0.543-0.148-0.866-0.707-0.719-1.254
		c0.151-0.542,0.708-0.857,1.253-0.711C43.845,5.595,44.17,6.156,44.02,6.696z"/>
</g>
</svg>
