<?xml version="1.0" encoding="utf-8"?>
<!-- Generator: Adobe Illustrator 16.0.0, SVG Export Plug-In . SVG Version: 6.00 Build 0)  -->
<!DOCTYPE svg PUBLIC "-//W3C//DTD SVG 1.1//EN" "http://www.w3.org/Graphics/SVG/1.1/DTD/svg11.dtd">
<svg version="1.1" id="레이어_1" xmlns="http://www.w3.org/2000/svg" xmlns:xlink="http://www.w3.org/1999/xlink" x="0px"
	 y="0px" width="100px" height="100px" viewBox="0 0 100 100" enable-background="new 0 0 100 100" xml:space="preserve">
<g>
	<g>
		<path fill="#707070" d="M8.181,12.05c-0.063,0-0.124-0.024-0.169-0.068c-0.098-0.093-0.102-0.25-0.008-0.348l3.53-3.69
			l-3.53-3.578C7.91,4.268,7.914,4.111,8.011,4.018C8.056,3.974,8.116,3.95,8.18,3.95c0.067,0,0.131,0.027,0.178,0.076l3.639,3.804
			c0.092,0.095,0.092,0.244,0,0.34l-3.639,3.804C8.311,12.023,8.248,12.05,8.181,12.05z"/>
		<path fill="#707070" d="M8.181,12c-0.05,0-0.098-0.019-0.135-0.054c-0.079-0.075-0.081-0.199-0.007-0.278l3.53-3.689l-3.53-3.647
			C7.965,4.253,7.967,4.129,8.046,4.054C8.082,4.019,8.13,4,8.18,4c0.053,0,0.104,0.021,0.142,0.061l3.639,3.804
			c0.073,0.075,0.073,0.195,0,0.271L8.322,11.94C8.284,11.979,8.234,12,8.181,12z"/>
		<path fill="#707070" d="M8.181,12.02c-0.055,0-0.108-0.021-0.149-0.061c-0.085-0.082-0.088-0.218-0.006-0.304l3.529-3.69
			l-3.53-3.621c-0.04-0.042-0.062-0.097-0.06-0.155C7.966,4.132,7.99,4.079,8.032,4.04c0.04-0.038,0.092-0.06,0.148-0.06
			c0.059,0,0.114,0.023,0.155,0.065l3.639,3.805c0.08,0.083,0.08,0.214,0,0.298l-3.639,3.804C8.295,11.996,8.238,12.02,8.181,12.02z
			"/>
		<path fill="#707070" d="M11.938,7.886L8.3,4.082C8.236,4.016,8.132,4.014,8.066,4.077C8,4.139,7.999,4.244,8.062,4.31L11.59,8
			l-3.529,3.689C7.998,11.755,8,11.86,8.066,11.922c0.032,0.031,0.073,0.047,0.114,0.047c0.043,0,0.086-0.018,0.119-0.051
			l3.639-3.804C12,8.05,12,7.95,11.938,7.886z"/>
	</g>
</g>
<g>
	<g>
		<path fill="#707070" d="M36.197,12.05c-0.064,0-0.125-0.024-0.17-0.068c-0.097-0.094-0.101-0.25-0.008-0.348l3.53-3.69
			l-3.53-3.578c-0.045-0.046-0.07-0.109-0.069-0.175s0.028-0.127,0.076-0.173c0.046-0.043,0.106-0.067,0.17-0.067
			c0.068,0,0.129,0.026,0.178,0.076l3.639,3.804c0.092,0.095,0.092,0.244,0,0.34l-3.639,3.804
			C36.326,12.023,36.263,12.05,36.197,12.05z"/>
		<path fill="#707070" d="M36.197,12c-0.05,0-0.099-0.019-0.135-0.054c-0.078-0.076-0.081-0.199-0.006-0.278l3.53-3.689l-3.53-3.647
			C36.019,4.294,35.999,4.244,36,4.191c0.001-0.053,0.022-0.101,0.061-0.138C36.098,4.019,36.146,4,36.196,4
			c0.054,0,0.104,0.021,0.142,0.061l3.639,3.804c0.073,0.075,0.073,0.195,0,0.271l-3.639,3.804C36.3,11.979,36.25,12,36.197,12z"/>
		<path fill="#707070" d="M36.196,12.02c-0.055,0-0.108-0.021-0.149-0.061c-0.042-0.04-0.065-0.093-0.066-0.15
			s0.02-0.112,0.06-0.154l3.528-3.689l-3.528-3.62c-0.04-0.042-0.062-0.097-0.06-0.155c0.001-0.057,0.025-0.11,0.067-0.15
			c0.04-0.038,0.092-0.06,0.148-0.06c0.059,0,0.114,0.023,0.155,0.065l3.639,3.805c0.081,0.083,0.081,0.215-0.001,0.298
			l-3.638,3.804C36.309,11.996,36.254,12.02,36.196,12.02z"/>
		<path fill="#707070" d="M39.954,7.886l-3.638-3.804c-0.064-0.065-0.168-0.068-0.233-0.004c-0.066,0.063-0.068,0.168-0.005,0.233
			L39.605,8l-3.528,3.689c-0.063,0.066-0.061,0.171,0.004,0.233c0.032,0.031,0.074,0.047,0.115,0.047
			c0.043,0,0.086-0.018,0.119-0.051l3.638-3.804C40.016,8.05,40.016,7.95,39.954,7.886z"/>
	</g>
</g>
<g>
	<g>
		<path fill="#707070" d="M40.166,12.05c-0.063,0-0.124-0.024-0.169-0.068c-0.098-0.094-0.102-0.25-0.008-0.348l3.53-3.69
			l-3.53-3.578c-0.093-0.098-0.089-0.254,0.008-0.348c0.045-0.043,0.106-0.067,0.17-0.067c0.068,0,0.131,0.027,0.178,0.076
			l3.639,3.804c0.092,0.095,0.092,0.244,0,0.34l-3.639,3.804C40.296,12.023,40.233,12.05,40.166,12.05z"/>
		<path fill="#707070" d="M40.166,12c-0.05,0-0.098-0.019-0.135-0.054c-0.078-0.075-0.081-0.199-0.006-0.278l3.53-3.689l-3.53-3.647
			c-0.074-0.078-0.071-0.202,0.006-0.277C40.066,4.019,40.114,4,40.166,4c0.054,0,0.104,0.021,0.142,0.061l3.639,3.804
			c0.073,0.075,0.073,0.195,0,0.271l-3.639,3.804C40.27,11.979,40.219,12,40.166,12z"/>
		<path fill="#707070" d="M40.166,12.02c-0.055,0-0.109-0.022-0.149-0.061c-0.042-0.04-0.065-0.093-0.066-0.15
			s0.02-0.112,0.06-0.153l3.529-3.69l-3.529-3.62c-0.04-0.042-0.061-0.096-0.06-0.154s0.025-0.111,0.066-0.15
			c0.04-0.039,0.092-0.06,0.148-0.06c0.058,0,0.115,0.024,0.155,0.066l3.638,3.804c0.081,0.083,0.081,0.214,0,0.298l-3.638,3.804
			C40.28,11.996,40.225,12.02,40.166,12.02z"/>
		<path fill="#707070" d="M43.923,7.886l-3.638-3.804c-0.063-0.065-0.168-0.068-0.233-0.004c-0.066,0.063-0.068,0.168-0.005,0.233
			L43.575,8l-3.529,3.689c-0.063,0.066-0.061,0.171,0.005,0.233c0.032,0.031,0.073,0.047,0.114,0.047
			c0.044,0,0.087-0.018,0.119-0.051l3.638-3.804C43.985,8.05,43.985,7.95,43.923,7.886z"/>
	</g>
</g>
<g>
	<g>
		<path fill="#707070" d="M11.819,35.049c-0.068,0-0.13-0.027-0.177-0.077l-3.638-3.803c-0.091-0.095-0.091-0.245,0-0.34
			l3.639-3.803c0.048-0.05,0.111-0.076,0.178-0.076c0.062,0,0.122,0.023,0.168,0.067c0.098,0.095,0.102,0.25,0.008,0.349
			l-3.529,3.646l3.529,3.621c0.045,0.048,0.069,0.111,0.068,0.177c-0.002,0.066-0.029,0.127-0.077,0.172
			C11.943,35.025,11.883,35.049,11.819,35.049z"/>
		<path fill="#707070" d="M11.819,34.999c0.051,0,0.099-0.02,0.135-0.054c0.079-0.074,0.081-0.199,0.007-0.277l-3.529-3.69
			l3.529-3.646c0.074-0.078,0.072-0.202-0.006-0.277c-0.036-0.034-0.084-0.055-0.134-0.055c-0.054,0-0.104,0.021-0.142,0.061
			L8.04,30.864c-0.073,0.076-0.073,0.194,0,0.271l3.639,3.805C11.716,34.978,11.766,34.999,11.819,34.999z"/>
		<path fill="#707070" d="M11.819,35.019c-0.057,0-0.113-0.023-0.154-0.064l-3.639-3.805c-0.08-0.083-0.08-0.215,0-0.299
			l3.638-3.804c0.041-0.042,0.097-0.065,0.156-0.065c0.056,0,0.108,0.021,0.148,0.06c0.085,0.083,0.088,0.219,0.006,0.305
			l-3.528,3.689l3.528,3.62c0.04,0.042,0.062,0.096,0.061,0.153c-0.001,0.059-0.025,0.111-0.067,0.15
			C11.927,34.998,11.875,35.019,11.819,35.019z"/>
		<path fill="#707070" d="M8.062,31.114l3.638,3.804c0.033,0.033,0.076,0.051,0.119,0.051c0.041,0,0.083-0.016,0.115-0.046
			c0.066-0.063,0.068-0.168,0.004-0.232L8.41,31l3.528-3.689c0.063-0.065,0.061-0.17-0.004-0.233
			c-0.066-0.063-0.17-0.061-0.233,0.005l-3.638,3.804C8,30.95,8,31.05,8.062,31.114z"/>
	</g>
</g>
<g>
	<g>
		<path fill="#707070" d="M43.804,35.05c-0.067,0-0.13-0.025-0.178-0.075l-3.638-3.805c-0.091-0.095-0.091-0.245,0-0.34l3.639-3.804
			c0.047-0.05,0.111-0.076,0.178-0.076c0.062,0,0.124,0.024,0.169,0.067c0.048,0.045,0.076,0.107,0.076,0.174
			c0.001,0.064-0.023,0.128-0.068,0.175l-3.53,3.646l3.53,3.62c0.094,0.1,0.09,0.255-0.008,0.349
			C43.93,35.026,43.869,35.05,43.804,35.05z"/>
		<path fill="#707070" d="M43.804,35c0.05,0,0.099-0.019,0.135-0.054c0.079-0.075,0.081-0.199,0.007-0.277l-3.53-3.689l3.53-3.646
			c0.036-0.038,0.055-0.087,0.054-0.14c0-0.054-0.022-0.102-0.061-0.139C43.903,27.021,43.855,27,43.805,27
			c-0.054,0-0.104,0.021-0.142,0.061l-3.639,3.805c-0.073,0.076-0.073,0.194,0,0.271l3.638,3.805C43.7,34.978,43.75,35,43.804,35z"
			/>
		<path fill="#707070" d="M43.804,35.019c-0.057,0-0.114-0.023-0.155-0.064l-3.639-3.805c-0.08-0.083-0.08-0.215,0-0.299
			l3.639-3.804c0.041-0.042,0.097-0.065,0.156-0.065c0.056,0,0.108,0.021,0.148,0.06c0.085,0.083,0.088,0.219,0.006,0.304
			l-3.529,3.689l3.529,3.621c0.04,0.042,0.061,0.096,0.06,0.153s-0.025,0.11-0.067,0.15C43.915,34.997,43.86,35.019,43.804,35.019z"
			/>
		<path fill="#707070" d="M40.046,31.114l3.639,3.805c0.033,0.033,0.076,0.051,0.119,0.051c0.041,0,0.083-0.016,0.114-0.046
			c0.066-0.063,0.068-0.168,0.005-0.232l-3.529-3.69l3.529-3.689c0.063-0.064,0.061-0.17-0.005-0.232
			c-0.065-0.063-0.17-0.062-0.233,0.004l-3.639,3.804C39.985,30.95,39.985,31.05,40.046,31.114z"/>
	</g>
</g>
<g>
	<g>
		<path fill="#707070" d="M39.835,35.05c-0.067,0-0.13-0.025-0.178-0.075l-3.638-3.805c-0.091-0.095-0.091-0.245,0-0.34l3.638-3.804
			c0.049-0.05,0.112-0.076,0.179-0.076c0.062,0,0.124,0.024,0.169,0.067c0.098,0.095,0.102,0.25,0.008,0.349l-3.53,3.646l3.53,3.62
			c0.045,0.048,0.069,0.11,0.067,0.176c-0.001,0.066-0.028,0.127-0.076,0.173C39.959,35.026,39.899,35.05,39.835,35.05z"/>
		<path fill="#707070" d="M39.835,35c0.05,0,0.098-0.019,0.135-0.054c0.078-0.074,0.081-0.199,0.007-0.277l-3.53-3.689l3.53-3.646
			c0.074-0.078,0.071-0.202-0.007-0.277c-0.036-0.034-0.084-0.055-0.135-0.055c-0.054,0-0.104,0.022-0.143,0.061l-3.638,3.805
			c-0.073,0.076-0.073,0.194,0,0.271l3.638,3.805C39.731,34.978,39.782,35,39.835,35z"/>
		<path fill="#707070" d="M39.835,35.019c-0.057,0-0.114-0.023-0.155-0.064l-3.639-3.805c-0.08-0.083-0.08-0.215,0-0.299
			l3.639-3.804c0.041-0.042,0.097-0.065,0.156-0.065c0.056,0,0.108,0.021,0.148,0.06c0.042,0.04,0.065,0.093,0.067,0.151
			c0.001,0.058-0.021,0.111-0.06,0.152l-3.528,3.689l3.528,3.621c0.04,0.042,0.061,0.097,0.06,0.153
			c-0.001,0.058-0.025,0.111-0.067,0.15C39.943,34.998,39.891,35.019,39.835,35.019z"/>
		<path fill="#707070" d="M36.078,31.114l3.639,3.805c0.033,0.033,0.076,0.051,0.119,0.051c0.041,0,0.082-0.016,0.114-0.046
			c0.066-0.063,0.068-0.168,0.005-0.232l-3.528-3.69l3.528-3.689c0.063-0.064,0.061-0.17-0.005-0.232
			c-0.065-0.063-0.17-0.062-0.233,0.004l-3.639,3.804C36.016,30.95,36.016,31.05,36.078,31.114z"/>
	</g>
</g>
</svg>
