<?xml version="1.0" encoding="utf-8"?>
<!-- Generator: Adobe Illustrator 16.0.0, SVG Export Plug-In . SVG Version: 6.00 Build 0)  -->
<!DOCTYPE svg PUBLIC "-//W3C//DTD SVG 1.1//EN" "http://www.w3.org/Graphics/SVG/1.1/DTD/svg11.dtd">
<svg version="1.1" id="레이어_1" xmlns="http://www.w3.org/2000/svg" xmlns:xlink="http://www.w3.org/1999/xlink" x="0px"
	 y="0px" width="22px" height="22px" viewBox="0 0 22 22" enable-background="new 0 0 22 22" xml:space="preserve">
<path fill="#BBBBBB" d="M11,21.999c-2.936,0-5.699-1.145-7.778-3.223C1.145,16.698,0,13.937,0,11S1.145,5.3,3.222,3.222
	C5.299,1.145,8.062,0,11,0c2.938,0,5.7,1.144,7.777,3.222C20.854,5.301,22,8.063,22,11c0,2.936-1.146,5.698-3.223,7.777
	C16.698,20.854,13.937,21.999,11,21.999z M11,0.867C5.413,0.867,0.867,5.412,0.867,11c0,5.586,4.545,10.131,10.133,10.131
	c5.587,0,10.132-4.545,10.132-10.131C21.132,5.412,16.587,0.867,11,0.867z"/>
<path fill="#AAAAAA" d="M9.625,14.718c-0.156,0-0.302-0.06-0.413-0.17L5.69,11.025c-0.11-0.109-0.169-0.255-0.169-0.411
	s0.059-0.302,0.169-0.412s0.256-0.17,0.413-0.17l0,0c0.155,0,0.301,0.06,0.412,0.17l3.11,3.109l5.859-5.859
	c0.11-0.11,0.258-0.171,0.413-0.171c0.156,0,0.302,0.06,0.412,0.171c0.11,0.109,0.171,0.256,0.171,0.412s-0.061,0.302-0.171,0.412
	l-6.272,6.274C9.926,14.658,9.78,14.718,9.625,14.718z"/>
</svg>
