<?xml version="1.0" encoding="utf-8"?>
<!-- Generator: Adobe Illustrator 16.0.0, SVG Export Plug-In . SVG Version: 6.00 Build 0)  -->
<!DOCTYPE svg PUBLIC "-//W3C//DTD SVG 1.1//EN" "http://www.w3.org/Graphics/SVG/1.1/DTD/svg11.dtd">
<svg version="1.1" id="레이어_1" xmlns="http://www.w3.org/2000/svg" xmlns:xlink="http://www.w3.org/1999/xlink" x="0px"
	 y="0px" width="22px" height="22px" viewBox="0 0 22 22" enable-background="new 0 0 22 22" xml:space="preserve">
<path fill="#1D34AA" d="M18.777,3.222C16.7,1.144,13.938,0,11,0C8.062,0,5.299,1.145,3.222,3.222C1.145,5.3,0,8.063,0,11
	c0,2.938,1.145,5.698,3.222,7.775c2.079,2.078,4.842,3.224,7.778,3.224c2.938,0,5.697-1.146,7.777-3.222
	C20.854,16.698,22,13.936,22,11C22,8.063,20.854,5.301,18.777,3.222z"/>
<path fill="#FFFFFF" d="M9.625,14.718c-0.156,0-0.302-0.06-0.413-0.17L5.69,11.025c-0.11-0.109-0.169-0.255-0.169-0.411
	c0-0.156,0.059-0.302,0.169-0.412c0.11-0.11,0.256-0.17,0.413-0.17l0,0c0.155,0,0.301,0.06,0.412,0.17l3.11,3.108l5.859-5.858
	c0.109-0.11,0.258-0.171,0.412-0.171c0.156,0,0.303,0.06,0.412,0.171c0.11,0.109,0.172,0.256,0.172,0.412
	c0,0.156-0.062,0.302-0.172,0.412l-6.271,6.274C9.926,14.658,9.78,14.718,9.625,14.718z"/>
</svg>
