<?xml version="1.0" encoding="utf-8"?>
<!-- Generator: Adobe Illustrator 16.0.0, SVG Export Plug-In . SVG Version: 6.00 Build 0)  -->
<!DOCTYPE svg PUBLIC "-//W3C//DTD SVG 1.1//EN" "http://www.w3.org/Graphics/SVG/1.1/DTD/svg11.dtd">
<svg version="1.1" id="레이어_1" xmlns="http://www.w3.org/2000/svg" xmlns:xlink="http://www.w3.org/1999/xlink" x="0px"
	 y="0px" width="26px" height="23px" viewBox="0 0 26 23" enable-background="new 0 0 26 23" xml:space="preserve">
<path fill="#777777" d="M9.02,15.703c-0.285,0-0.532-0.182-0.615-0.455L4.376,2.043L0.769,2.177c-0.356,0-0.645-0.289-0.645-0.643
	s0.289-0.643,0.643-0.643h4.126c0.284,0,0.531,0.183,0.615,0.455l4.028,13.205l12.226-0.134l2.556-7.93L10.74,6.603
	c-0.354,0-0.643-0.289-0.643-0.643c0-0.354,0.289-0.643,0.643-0.643h14.436c0.205,0,0.401,0.1,0.52,0.268
	c0.121,0.169,0.155,0.386,0.087,0.583l-3.085,9.099c-0.09,0.261-0.336,0.436-0.609,0.436H9.02z"/>
<path fill="#777777" d="M11.155,22.552c-1.516,0-2.749-1.233-2.749-2.75c0-1.515,1.233-2.748,2.749-2.748
	c1.515,0,2.748,1.232,2.748,2.748C13.903,21.319,12.67,22.552,11.155,22.552z M11.155,18.339c-0.807,0-1.464,0.656-1.464,1.463
	c0,0.807,0.657,1.464,1.464,1.464c0.807,0,1.463-0.657,1.463-1.464C12.619,18.996,11.962,18.339,11.155,18.339z"/>
<path fill="#777777" d="M19.923,22.552c-1.516,0-2.749-1.233-2.749-2.75c0-1.515,1.233-2.748,2.749-2.748
	c1.517,0,2.749,1.232,2.749,2.748C22.672,21.319,21.44,22.552,19.923,22.552z M19.923,18.339c-0.807,0-1.464,0.656-1.464,1.463
	c0,0.807,0.657,1.464,1.464,1.464c0.808,0,1.463-0.657,1.463-1.464C21.386,18.996,20.731,18.339,19.923,18.339z"/>
</svg>
