<?xml version="1.0" encoding="utf-8"?>
<!-- Generator: Adobe Illustrator 16.0.0, SVG Export Plug-In . SVG Version: 6.00 Build 0)  -->
<!DOCTYPE svg PUBLIC "-//W3C//DTD SVG 1.1//EN" "http://www.w3.org/Graphics/SVG/1.1/DTD/svg11.dtd">
<svg version="1.1" id="레이어_1" xmlns="http://www.w3.org/2000/svg" xmlns:xlink="http://www.w3.org/1999/xlink" x="0px"
	 y="0px" width="30px" height="30px" viewBox="0 0 30 30" enable-background="new 0 0 30 30" xml:space="preserve">
<g id="Clip">
	<path fill="#888888" d="M3.816,28.588c1.883,1.883,4.937,1.883,6.819,0l0,0l16.67-16.67c2.734-2.705,2.759-7.115,0.054-9.85
		s-7.115-2.759-9.85-0.054c-0.019,0.018-0.036,0.036-0.055,0.054L6.468,13.054l0.759,0.759L18.213,2.825
		c2.286-2.317,6.018-2.342,8.335-0.056s2.342,6.018,0.056,8.334c-0.019,0.019-0.037,0.038-0.056,0.056L9.878,27.829
		c-1.465,1.465-3.839,1.465-5.304,0c-1.465-1.464-1.465-3.839,0-5.304L18.971,8.128c0.633-0.623,1.65-0.614,2.273,0.019
		c0.615,0.625,0.615,1.629-0.001,2.254l-8.713,8.714l0.757,0.758l8.715-8.714c1.041-1.051,1.034-2.747-0.017-3.789
		c-1.045-1.035-2.729-1.035-3.772,0L3.816,21.769C1.934,23.651,1.934,26.704,3.816,28.588L3.816,28.588L3.816,28.588z"/>
</g>
</svg>
