<?xml version="1.0" encoding="utf-8"?>
<!-- Generator: Adobe Illustrator 16.0.0, SVG Export Plug-In . SVG Version: 6.00 Build 0)  -->
<!DOCTYPE svg PUBLIC "-//W3C//DTD SVG 1.1//EN" "http://www.w3.org/Graphics/SVG/1.1/DTD/svg11.dtd">
<svg version="1.1" id="레이어_1" xmlns="http://www.w3.org/2000/svg" xmlns:xlink="http://www.w3.org/1999/xlink" x="0px"
	 y="0px" width="35px" height="35px" viewBox="0 0 35 35" enable-background="new 0 0 35 35" xml:space="preserve">
<circle fill="none" stroke="#F0F0F0" stroke-width="1.1339" stroke-miterlimit="10" cx="17.5" cy="17.5" r="16.5"/>
<g>
	<g>
		<path fill="#EEEEEE" d="M15.354,24.7c-0.159,0-0.316-0.063-0.43-0.172c-0.249-0.238-0.259-0.636-0.021-0.885l5.968-6.239
			l-5.966-6.045c-0.24-0.252-0.231-0.649,0.017-0.887c0.114-0.111,0.268-0.173,0.431-0.173c0.17,0,0.334,0.07,0.452,0.192
			l6.29,6.576c0.234,0.24,0.234,0.621-0.001,0.864l-6.289,6.577C15.687,24.632,15.527,24.7,15.354,24.7z"/>
		<path fill="#EEEEEE" d="M15.354,24.5c-0.109,0-0.214-0.042-0.292-0.116c-0.169-0.162-0.176-0.433-0.015-0.603l6.103-6.378
			l-6.103-6.184c-0.162-0.169-0.155-0.441,0.013-0.602c0.078-0.076,0.182-0.117,0.292-0.117c0.116,0,0.227,0.046,0.308,0.131
			l6.29,6.576c0.159,0.164,0.159,0.422,0,0.587l-6.29,6.577C15.579,24.455,15.47,24.5,15.354,24.5z"/>
		<path fill="#EEEEEE" d="M15.354,24.613c-0.138,0-0.269-0.053-0.371-0.148c-0.215-0.201-0.225-0.543-0.021-0.762l5.969-6.238
			l-5.966-6.166c-0.206-0.219-0.197-0.561,0.018-0.765c0.099-0.095,0.23-0.149,0.37-0.149c0.149,0,0.288,0.06,0.391,0.169
			l6.289,6.574c0.2,0.203,0.2,0.539-0.002,0.745l-6.288,6.574C15.638,24.555,15.501,24.613,15.354,24.613z"/>
		<path fill="#EEEEEE" d="M15.354,24.413c-0.087,0-0.169-0.033-0.234-0.094c-0.136-0.128-0.14-0.342-0.012-0.479l6.1-6.376
			l-6.1-6.304c-0.128-0.137-0.125-0.351,0.012-0.48c0.063-0.061,0.145-0.094,0.232-0.094c0.091,0,0.18,0.037,0.245,0.106l6.29,6.575
			c0.127,0.129,0.127,0.337,0,0.467l-6.29,6.575C15.532,24.377,15.445,24.413,15.354,24.413z"/>
		<path fill="#EEEEEE" d="M15.354,24.648c-0.15,0-0.291-0.058-0.397-0.162c-0.224-0.216-0.232-0.578-0.017-0.807l5.967-6.239
			l-5.966-6.121c-0.109-0.114-0.166-0.261-0.161-0.414c0.003-0.15,0.067-0.293,0.181-0.397c0.103-0.1,0.243-0.157,0.391-0.157
			c0.157,0,0.303,0.062,0.412,0.174l6.292,6.578c0.212,0.22,0.212,0.568,0.001,0.791l-6.293,6.576
			C15.664,24.581,15.512,24.648,15.354,24.648z"/>
		<path fill="#EEEEEE" d="M15.354,24.448c-0.096,0-0.188-0.036-0.257-0.104c-0.148-0.143-0.153-0.377-0.011-0.527l6.1-6.377
			l-6.101-6.259c-0.069-0.072-0.107-0.167-0.104-0.268c0.002-0.099,0.043-0.189,0.117-0.257c0.068-0.066,0.158-0.104,0.255-0.104
			c0.102,0,0.197,0.04,0.268,0.113l6.292,6.577c0.138,0.143,0.138,0.37,0,0.515l-6.292,6.575
			C15.551,24.407,15.452,24.448,15.354,24.448z"/>
		<path fill="#EEEEEE" d="M15.353,24.56c-0.126,0-0.245-0.049-0.336-0.137c-0.093-0.088-0.146-0.209-0.149-0.339
			c-0.002-0.129,0.045-0.251,0.134-0.345L20.97,17.5l-5.966-6.24c-0.091-0.095-0.139-0.219-0.135-0.351
			c0.003-0.129,0.057-0.248,0.149-0.335c0.089-0.086,0.209-0.134,0.335-0.134c0.132,0,0.257,0.053,0.35,0.148l6.29,6.577
			c0.182,0.188,0.182,0.483-0.001,0.671l-6.289,6.575C15.607,24.507,15.484,24.56,15.353,24.56z"/>
		<path fill="#EEEEEE" d="M21.848,17.303l-6.288-6.575c-0.111-0.114-0.291-0.117-0.404-0.008c-0.114,0.107-0.116,0.289-0.007,0.402
			l6.098,6.378l-6.099,6.377c-0.109,0.114-0.105,0.294,0.008,0.402c0.056,0.054,0.127,0.08,0.197,0.08
			c0.075,0,0.148-0.029,0.205-0.087l6.29-6.575C21.955,17.586,21.955,17.414,21.848,17.303z"/>
	</g>
</g>
</svg>
