<?xml version="1.0" encoding="utf-8"?>
<!-- Generator: Adobe Illustrator 16.0.0, SVG Export Plug-In . SVG Version: 6.00 Build 0)  -->
<!DOCTYPE svg PUBLIC "-//W3C//DTD SVG 1.1//EN" "http://www.w3.org/Graphics/SVG/1.1/DTD/svg11.dtd">
<svg version="1.1" id="레이어_1" xmlns="http://www.w3.org/2000/svg" xmlns:xlink="http://www.w3.org/1999/xlink" x="0px"
	 y="0px" width="20px" height="20px" viewBox="0 0 20 20" enable-background="new 0 0 20 20" xml:space="preserve">
<g id="레이어_1_1_">
	<g>
		<g>
			<g>
				<path fill="#777777" d="M14.396,16.339c-0.258,0-0.467-0.208-0.467-0.466v-0.366c0-0.147-0.121-0.271-0.269-0.271
					s-0.269,0.123-0.269,0.271v0.366c0,0.258-0.209,0.466-0.467,0.466H0.832C0.373,16.339,0,15.966,0,15.507V4.494
					c0-0.46,0.373-0.833,0.832-0.833h12.096c0.256,0,0.465,0.209,0.465,0.466v0.367c0,0.148,0.121,0.268,0.27,0.268
					s0.268-0.119,0.268-0.268V4.127c0-0.257,0.211-0.466,0.467-0.466h4.772C19.627,3.661,20,4.034,20,4.494v11.013
					c0,0.459-0.373,0.832-0.832,0.832H14.396z M19.068,15.408V4.594h-4.213c-0.043,0.454-0.322,0.834-0.729,1.006v0.362
					c0,0.258-0.21,0.466-0.466,0.466s-0.467-0.208-0.467-0.466V5.6c-0.411-0.174-0.692-0.562-0.729-1.006H0.932v10.814h11.535
					c0.042-0.455,0.322-0.838,0.729-1.008v-0.363c0-0.256,0.211-0.465,0.467-0.465s0.466,0.209,0.466,0.465V14.4
					c0.412,0.174,0.692,0.563,0.729,1.008H19.068z"/>
				<path fill="#777777" d="M19.168,3.783h-4.771c-0.19,0-0.346,0.154-0.346,0.344v0.367c0,0.215-0.175,0.39-0.39,0.39
					c-0.216,0-0.39-0.175-0.39-0.39V4.127c0-0.19-0.154-0.344-0.346-0.344H0.832c-0.392,0-0.71,0.319-0.71,0.711v11.013
					c0,0.392,0.318,0.711,0.71,0.711h12.096c0.189,0,0.344-0.153,0.344-0.345v-0.366c0-0.216,0.176-0.392,0.391-0.392
					s0.391,0.176,0.391,0.392v0.366c0,0.189,0.153,0.345,0.344,0.345h4.772c0.392,0,0.711-0.319,0.711-0.711V4.494
					C19.879,4.102,19.559,3.783,19.168,3.783z M19.189,15.507c0,0.013-0.01,0.022-0.021,0.022h-4.43v-0.022
					c0-0.475-0.307-0.878-0.734-1.022v-0.446c0-0.188-0.152-0.343-0.343-0.343s-0.345,0.152-0.345,0.343v0.446
					c-0.426,0.146-0.732,0.549-0.732,1.022v0.022H0.832c-0.012,0-0.022-0.012-0.022-0.022V4.494c0-0.013,0.011-0.023,0.022-0.023
					h11.752v0.023c0,0.474,0.307,0.878,0.732,1.021v0.447c0,0.189,0.152,0.345,0.345,0.345c0.19,0,0.343-0.155,0.343-0.345V5.516
					c0.428-0.144,0.734-0.548,0.734-1.021V4.471h4.43c0.012,0,0.021,0.011,0.021,0.023V15.507L19.189,15.507z"/>
			</g>
		</g>
	</g>
	<g>
		<g>
			<g>
				<path fill="#2D2DEA" d="M13.66,9.243c-0.256,0-0.467-0.209-0.467-0.467V8.041c0-0.257,0.211-0.465,0.467-0.465
					s0.464,0.208,0.464,0.465v0.734C14.124,9.033,13.916,9.243,13.66,9.243z"/>
				<path fill="#2D2DEA" d="M13.66,7.697c-0.191,0-0.344,0.154-0.344,0.344v0.734c0,0.189,0.151,0.345,0.344,0.345
					c0.189,0,0.343-0.155,0.343-0.345V8.041C14.003,7.851,13.852,7.697,13.66,7.697z"/>
			</g>
		</g>
	</g>
	<g>
		<g>
			<g>
				<path fill="#2D2DEA" d="M13.66,12.425c-0.256,0-0.467-0.208-0.467-0.465v-0.735c0-0.258,0.211-0.466,0.467-0.466
					s0.464,0.208,0.464,0.466v0.735C14.124,12.217,13.916,12.425,13.66,12.425z"/>
				<path fill="#2D2DEA" d="M13.66,10.88c-0.191,0-0.344,0.155-0.344,0.345v0.735c0,0.188,0.151,0.345,0.344,0.345
					c0.189,0,0.343-0.156,0.343-0.345v-0.735C14.003,11.035,13.852,10.88,13.66,10.88z"/>
			</g>
		</g>
	</g>
	<g>
		<path fill="#2D2DEA" d="M8.199,6.952c0.443,0.187,0.814,0.441,1.114,0.762C9.61,8.036,9.821,8.396,9.947,8.795H8.391
			C8.249,8.551,8.037,8.353,7.748,8.2C7.46,8.047,7.13,7.97,6.757,7.97c-0.379,0-0.722,0.087-1.026,0.261
			c-0.306,0.173-0.546,0.415-0.72,0.723C4.837,9.263,4.75,9.611,4.75,10s0.087,0.74,0.261,1.055c0.174,0.313,0.414,0.56,0.72,0.734
			c0.305,0.176,0.647,0.266,1.026,0.266c0.316,0,0.603-0.06,0.863-0.172c0.26-0.115,0.471-0.267,0.633-0.456
			c0.164-0.188,0.272-0.391,0.324-0.604H6.64V9.627h3.446V10c0,0.633-0.146,1.202-0.438,1.708s-0.697,0.901-1.207,1.188
			c-0.511,0.289-1.083,0.433-1.715,0.433c-0.643,0-1.223-0.144-1.738-0.433c-0.516-0.287-0.92-0.684-1.214-1.188
			C3.48,11.202,3.334,10.634,3.334,10c0-0.632,0.146-1.202,0.439-1.708C4.067,7.787,4.471,7.39,4.987,7.103
			c0.516-0.288,1.095-0.432,1.738-0.432C7.265,6.671,7.757,6.765,8.199,6.952z"/>
	</g>
</g>
<g id="레이어_2" display="none">
	<circle display="inline" fill="none" stroke="#777777" stroke-width="0.9921" stroke-miterlimit="10" cx="10" cy="10" r="7.5"/>
	<g display="inline">
		<path fill="#2D2DEA" d="M7.631,6.25h2.881c0.643,0,1.196,0.114,1.66,0.341c0.465,0.227,0.816,0.546,1.063,0.957
			c0.246,0.411,0.367,0.892,0.367,1.445c0,0.557-0.121,1.044-0.367,1.458c-0.244,0.415-0.598,0.734-1.063,0.962
			c-0.464,0.228-1.018,0.34-1.66,0.34H9.305v1.998H7.631V6.25z M10.438,10.271c0.473,0,0.837-0.11,1.1-0.331
			c0.26-0.221,0.39-0.537,0.39-0.947c0-0.412-0.13-0.724-0.39-0.939c-0.263-0.215-0.627-0.322-1.1-0.322H9.305v2.54L10.438,10.271
			L10.438,10.271z"/>
	</g>
</g>
</svg>
