<?xml version="1.0" encoding="utf-8"?>
<!-- Generator: Adobe Illustrator 16.0.0, SVG Export Plug-In . SVG Version: 6.00 Build 0)  -->
<!DOCTYPE svg PUBLIC "-//W3C//DTD SVG 1.1//EN" "http://www.w3.org/Graphics/SVG/1.1/DTD/svg11.dtd">
<svg version="1.1" id="레이어_1" xmlns="http://www.w3.org/2000/svg" xmlns:xlink="http://www.w3.org/1999/xlink" x="0px"
	 y="0px" width="100px" height="100px" viewBox="0 0 100 100" enable-background="new 0 0 100 100" xml:space="preserve">
<linearGradient id="SVGID_1_" gradientUnits="userSpaceOnUse" x1="-2.833" y1="-1.5" x2="102.1668" y2="103.4998">
	<stop  offset="0" style="stop-color:#2F3B9C"/>
	<stop  offset="1" style="stop-color:#3645B9"/>
</linearGradient>
<rect x="-2" y="-2.333" fill="url(#SVGID_1_)" width="103.334" height="106.667"/>
<path opacity="0.08" fill="#FFFFFF" d="M94.619,65.574L56.495,54.04c-1.025-0.311-2.112,0.271-2.424,1.297l-3.232,10.68
	c-0.31,1.027,0.271,2.114,1.299,2.425l0.345,0.162l-4.983,16.464c-0.313,1.029,0.269,2.114,1.297,2.423L82.329,97.64
	c1.027,0.311,2.111-0.269,2.426-1.297l4.98-16.466l0.525,0.101c1.027,0.313,2.111-0.27,2.423-1.298L95.916,68
	C96.229,66.973,95.646,65.887,94.619,65.574z M57.599,57.982l14.994,4.537l-2.619,8.658L54.979,66.64L57.599,57.982z M51.898,84.875
	l4.541-15.006l12.762,3.863l-4.543,15.004L51.898,84.875z M81.254,93.76l-12.663-3.833l4.539-15.005l12.666,3.833L81.254,93.76z
	 M88.785,76.869l-14.881-4.502l2.62-8.656l14.881,4.502L88.785,76.869z"/>
<g opacity="0.08">
	<path fill="#FFFFFF" d="M81.749,59.528l4.255-5.935c0,0,0.134-0.289-0.01-0.495c-0.17-0.241-0.731-0.082-0.731-0.082l-5.179,1.612
		l-0.813-4.773c0,0-0.103-0.535-0.369-0.617c-0.354-0.11-0.764,0.246-0.764,0.246l-3.521,3.201l-3.522-4.158
		c0,0-0.204-0.282-0.453-0.186c-0.268,0.104-0.247,0.433-0.247,0.433l0.202,7.367L81.749,59.528z"/>
	<path fill="#FFFFFF" d="M71.08,46.828c-0.147,0.526-0.685,0.835-1.212,0.692s-0.835-0.685-0.695-1.21
		c0.144-0.526,0.688-0.836,1.212-0.692C70.911,45.759,71.222,46.301,71.08,46.828z"/>
	<circle fill="#FFFFFF" cx="79.457" cy="47.125" r="0.985"/>
	<path fill="#FFFFFF" d="M88.345,52.064c-0.145,0.525-0.685,0.836-1.21,0.693c-0.525-0.144-0.839-0.685-0.695-1.214
		c0.146-0.524,0.685-0.83,1.212-0.688C88.176,50.998,88.49,51.542,88.345,52.064z"/>
</g>
</svg>
