<?xml version="1.0" encoding="utf-8"?>
<!-- Generator: Adobe Illustrator 16.0.0, SVG Export Plug-In . SVG Version: 6.00 Build 0)  -->
<!DOCTYPE svg PUBLIC "-//W3C//DTD SVG 1.1//EN" "http://www.w3.org/Graphics/SVG/1.1/DTD/svg11.dtd">
<svg version="1.1" id="레이어_1" xmlns="http://www.w3.org/2000/svg" xmlns:xlink="http://www.w3.org/1999/xlink" x="0px"
	 y="0px" width="50px" height="50px" viewBox="0 0 50 50" enable-background="new 0 0 50 50" xml:space="preserve">
<g id="레이어_1_2_" display="none">
	<g id="레이어_1_1_" display="inline">
		<path fill="#555555" d="M72.064,43.928c-12.11,0-21.965-9.853-21.965-21.964C50.102,9.854,59.954,0,72.064,0
			c12.111,0,21.963,9.853,21.963,21.963C94.029,34.075,84.177,43.928,72.064,43.928z M72.064,3.215
			c-10.34,0-18.75,8.411-18.75,18.75c0,10.34,8.41,18.75,18.75,18.75s18.75-8.41,18.75-18.75S82.404,3.215,72.064,3.215z"/>
		<path fill="#555555" d="M98.494,50c-0.43,0-0.832-0.168-1.137-0.473L85.49,37.66c-0.305-0.303-0.473-0.706-0.473-1.137
			c0-0.432,0.168-0.832,0.473-1.139c0.303-0.304,0.707-0.471,1.135-0.471c0.432,0,0.834,0.167,1.139,0.471l11.867,11.869
			c0.305,0.307,0.471,0.709,0.471,1.139c0,0.432-0.166,0.834-0.471,1.137S98.924,50,98.494,50z"/>
	</g>
	<g id="레이어_2" display="inline">
		<path fill="#555555" d="M51.906,26.807c-0.995,0-1.807-0.812-1.807-1.807s0.812-1.805,1.807-1.805h46.391
			c0.994,0,1.805,0.81,1.805,1.805s-0.811,1.807-1.805,1.807H51.906z"/>
		<path fill="#555555" d="M51.906,10.639c-0.995,0-1.807-0.81-1.807-1.805s0.812-1.805,1.807-1.805h46.391
			c0.994,0,1.805,0.81,1.805,1.805s-0.811,1.805-1.805,1.805H51.906z"/>
		<path fill="#555555" d="M51.906,42.973c-0.995,0-1.807-0.812-1.807-1.807c0-0.996,0.812-1.807,1.807-1.807h46.391
			c0.996,0,1.807,0.811,1.807,1.807c0,0.995-0.811,1.807-1.807,1.807H51.906z"/>
	</g>
	<g id="레이어_3" display="inline">
		<g>
			<g>
				<path fill="#555555" d="M96.754,50.003C96.592,38.2,86.941,28.65,75.102,28.65c-11.841,0-21.492,9.55-21.653,21.353H50.1
					c0.078-6.565,2.672-12.726,7.321-17.377c2.718-2.715,5.913-4.722,9.501-5.959l0.568-0.196l-0.494-0.341
					c-3.896-2.683-6.225-7.096-6.225-11.806c0-7.9,6.43-14.327,14.328-14.327c7.899,0,14.326,6.427,14.326,14.327
					c0,4.709-2.324,9.123-6.22,11.806l-0.496,0.341l0.567,0.196c3.589,1.239,6.783,3.244,9.5,5.959
					c4.649,4.651,7.244,10.813,7.322,17.377H96.754z M75.102,3.345c-6.055,0-10.979,4.925-10.979,10.979
					c0,6.054,4.925,10.98,10.979,10.98c6.055,0,10.979-4.925,10.979-10.979C86.08,8.271,81.156,3.345,75.102,3.345z"/>
			</g>
		</g>
	</g>
	<g id="레이어_4" display="inline">
		<path fill="#555555" d="M75.102,50.1C61.261,50.1,50,38.84,50,25S61.261-0.1,75.102-0.1c13.84,0,25.101,11.26,25.101,25.1
			S88.941,50.1,75.102,50.1z M75.102,3.225c-12.006,0-21.774,9.768-21.774,21.775s9.769,21.775,21.774,21.775
			S96.875,37.005,96.875,25S87.107,3.225,75.102,3.225z"/>
		<path fill="#555555" d="M74.225,28.898c-0.912,0-1.654-0.741-1.654-1.652V13.574c0-0.912,0.742-1.653,1.654-1.653
			c0.91,0,1.652,0.742,1.652,1.653v12.019h8.111c0.912,0,1.652,0.742,1.652,1.653s-0.74,1.652-1.652,1.652H74.225z"/>
	</g>
</g>
<g id="레이어_2_1_">
	<path fill="#EEEEEE" d="M18.482,33.421c-0.68,0-1.269-0.435-1.465-1.083L8.79,5.373L1.544,5.642C0.689,5.643,0,4.956,0,4.111
		c0-0.845,0.688-1.532,1.532-1.532h8.474c0.675,0,1.264,0.436,1.463,1.084l8.227,26.969l21.609-0.271l5.113-15.865l-24.402,0.238
		c-0.847,0-1.534-0.688-1.534-1.533c0-0.845,0.688-1.532,1.532-1.532h26.457c0.493,0,0.956,0.239,1.238,0.641
		c0.291,0.404,0.369,0.924,0.207,1.388l-6.338,18.686c-0.215,0.622-0.795,1.037-1.447,1.037H18.482z"/>
	<path fill="#EEEEEE" d="M18.482,33.21c-0.586,0-1.093-0.372-1.263-0.935L8.944,5.157L1.536,5.431c-0.731,0-1.325-0.593-1.325-1.32
		S0.805,2.79,1.532,2.79h8.474c0.583,0,1.09,0.376,1.262,0.935l8.273,27.118l21.917-0.274l5.25-16.286l-24.694,0.239
		c-0.727,0-1.321-0.594-1.321-1.321s0.594-1.32,1.321-1.32h26.457c0.42,0,0.823,0.206,1.066,0.55c0.249,0.347,0.32,0.793,0.18,1.198
		L43.38,32.316c-0.185,0.533-0.688,0.894-1.248,0.894H18.482z"/>
	<path fill="#EEEEEE" d="M20.494,47.107c-3.036,0-5.506-2.471-5.506-5.508c0-3.033,2.47-5.502,5.506-5.502
		c3.034,0,5.503,2.469,5.503,5.502C25.997,44.637,23.528,47.107,20.494,47.107z M20.494,38.975c-1.449,0-2.627,1.178-2.627,2.625
		c0,1.449,1.178,2.629,2.627,2.629c1.448,0,2.626-1.18,2.626-2.629c0.001-0.699-0.271-1.356-0.768-1.854
		C21.855,39.247,21.195,38.975,20.494,38.975z"/>
	<path fill="#EEEEEE" d="M20.494,46.908c-2.926,0-5.307-2.381-5.307-5.309c0-2.925,2.381-5.304,5.307-5.304
		c2.925,0,5.304,2.377,5.304,5.304C25.798,44.527,23.419,46.908,20.494,46.908z M20.494,38.773c-1.557,0-2.826,1.269-2.826,2.826
		c0,1.56,1.269,2.826,2.826,2.826c1.558,0,2.825-1.268,2.825-2.826C23.321,40.044,22.052,38.773,20.494,38.773z"/>
	<path fill="#EEEEEE" d="M39.421,47.107c-3.036,0-5.506-2.471-5.506-5.508c0-3.033,2.47-5.502,5.506-5.502s5.506,2.469,5.506,5.502
		C44.927,44.637,42.457,47.107,39.421,47.107z M39.421,38.975c-1.448,0-2.628,1.178-2.628,2.625c0,1.449,1.18,2.629,2.628,2.629
		c1.449,0,2.627-1.18,2.627-2.629S40.87,38.975,39.421,38.975z"/>
	<path fill="#EEEEEE" d="M39.421,46.908c-2.926,0-5.308-2.381-5.308-5.309c0-2.925,2.382-5.304,5.308-5.304
		c2.929,0,5.308,2.377,5.308,5.304C44.729,44.527,42.35,46.908,39.421,46.908z M39.421,38.773c-1.557,0-2.825,1.269-2.825,2.826
		c0,1.56,1.27,2.826,2.825,2.826c1.56,0,2.826-1.268,2.826-2.826C42.247,40.044,40.98,38.773,39.421,38.773z"/>
</g>
</svg>
