<?xml version="1.0" encoding="utf-8"?>
<!-- Generator: Adobe Illustrator 16.0.0, SVG Export Plug-In . SVG Version: 6.00 Build 0)  -->
<!DOCTYPE svg PUBLIC "-//W3C//DTD SVG 1.1//EN" "http://www.w3.org/Graphics/SVG/1.1/DTD/svg11.dtd">
<svg version="1.1" id="레이어_1" xmlns="http://www.w3.org/2000/svg" xmlns:xlink="http://www.w3.org/1999/xlink" x="0px"
	 y="0px" width="50px" height="50px" viewBox="0 0 50 50" enable-background="new 0 0 50 50" xml:space="preserve">
<g id="레이어_1_1_" display="none">
	<path display="inline" fill="#555555" d="M21.963,43.928C9.853,43.928,0,34.075,0,21.964C0,9.854,9.853,0,21.963,0
		c12.112,0,21.963,9.853,21.963,21.963C43.928,34.075,34.075,43.928,21.963,43.928z M21.963,3.215
		c-10.338,0-18.749,8.411-18.749,18.75c0,10.34,8.411,18.75,18.749,18.75c10.34,0,18.75-8.41,18.75-18.75
		C40.714,11.625,32.303,3.215,21.963,3.215z"/>
	<path display="inline" fill="#555555" d="M48.393,50c-0.429,0-0.832-0.168-1.136-0.473L35.389,37.66
		c-0.305-0.303-0.472-0.706-0.472-1.137s0.167-0.832,0.472-1.137c0.303-0.305,0.707-0.472,1.135-0.472
		c0.432,0,0.834,0.167,1.139,0.472l11.867,11.868C49.833,47.561,50,47.964,50,48.393c0,0.432-0.167,0.834-0.471,1.137
		C49.225,49.832,48.822,50,48.393,50z"/>
</g>
<g id="레이어_2" display="none">
	<path display="inline" fill="#555555" d="M1.806,26.807C0.811,26.807,0,25.995,0,25s0.811-1.805,1.806-1.805h46.389
		C49.189,23.195,50,24.005,50,25s-0.811,1.807-1.805,1.807H1.806z"/>
	<path display="inline" fill="#555555" d="M1.806,10.639C0.811,10.639,0,9.829,0,8.834s0.811-1.805,1.806-1.805h46.389
		c0.994,0,1.805,0.81,1.805,1.805s-0.811,1.805-1.805,1.805H1.806z"/>
	<path display="inline" fill="#555555" d="M1.806,42.973C0.811,42.973,0,42.161,0,41.166c0-0.996,0.811-1.807,1.806-1.807h46.389
		c0.996,0,1.806,0.811,1.806,1.807c0,0.995-0.81,1.807-1.806,1.807H1.806z"/>
</g>
<g id="레이어_3">
	<g>
		<g>
			<path fill="#EEEEEE" d="M46.652,50.003C46.49,38.2,36.84,28.65,25,28.65S3.509,38.2,3.347,50.003h-3.348
				C0.077,43.438,2.67,37.277,7.32,32.626c2.717-2.715,5.913-4.722,9.501-5.959l0.568-0.196l-0.494-0.341
				c-3.896-2.683-6.223-7.096-6.223-11.806c0-7.9,6.428-14.327,14.327-14.327c7.899,0,14.326,6.427,14.326,14.327
				c0,4.709-2.325,9.123-6.22,11.806l-0.496,0.341l0.568,0.196c3.588,1.239,6.783,3.244,9.5,5.959
				c4.649,4.651,7.243,10.813,7.321,17.377H46.652z M25,3.345c-6.054,0-10.979,4.925-10.979,10.979
				c0,6.054,4.925,10.98,10.979,10.98c6.055,0,10.979-4.925,10.979-10.979C35.979,8.271,31.055,3.345,25,3.345z"/>
		</g>
	</g>
</g>
</svg>
