<?xml version="1.0" encoding="utf-8"?>
<!-- Generator: Adobe Illustrator 16.0.0, SVG Export Plug-In . SVG Version: 6.00 Build 0)  -->
<!DOCTYPE svg PUBLIC "-//W3C//DTD SVG 1.1//EN" "http://www.w3.org/Graphics/SVG/1.1/DTD/svg11.dtd">
<svg version="1.1" id="레이어_1" xmlns="http://www.w3.org/2000/svg" xmlns:xlink="http://www.w3.org/1999/xlink" x="0px"
	 y="0px" width="50px" height="50px" viewBox="0 0 50 50" enable-background="new 0 0 50 50" xml:space="preserve">
<g>
	<path fill="none" stroke="#555555" stroke-width="2.2677" d="M30.111,28.443v-6.887c0-0.999,0.812-1.81,1.811-1.81h12.389V9.205
		c0-1-0.813-1.81-1.811-1.81H3.812c-1,0-1.811,0.81-1.811,1.81v31.591c0,0.999,0.811,1.81,1.811,1.81H42.5
		c0.998,0,1.811-0.811,1.811-1.81V30.254H31.922C30.923,30.254,30.111,29.443,30.111,28.443z"/>
	<path fill="none" stroke="#7E7EE0" stroke-width="2.2677" d="M44.311,30.254h1.881c0.998,0,1.81-0.811,1.81-1.811v-6.887
		c0-0.999-0.812-1.81-1.81-1.81h-1.881"/>
	<path fill="none" stroke="#7E7EE0" stroke-width="2.2677" d="M44.311,19.747H31.922c-0.999,0-1.811,0.811-1.811,1.81v6.886
		c0,1,0.812,1.812,1.811,1.812h12.389"/>
</g>
</svg>
