<?xml version="1.0" encoding="utf-8"?>
<!-- Generator: Adobe Illustrator 16.0.0, SVG Export Plug-In . SVG Version: 6.00 Build 0)  -->
<!DOCTYPE svg PUBLIC "-//W3C//DTD SVG 1.1//EN" "http://www.w3.org/Graphics/SVG/1.1/DTD/svg11.dtd">
<svg version="1.1" id="레이어_1" xmlns="http://www.w3.org/2000/svg" xmlns:xlink="http://www.w3.org/1999/xlink" x="0px"
	 y="0px" width="50px" height="50px" viewBox="0 0 50 50" enable-background="new 0 0 50 50" xml:space="preserve">
<g id="레이어_10">
	<path fill="#555555" d="M11.614,48c-2.224,0-4.204-1.493-4.815-3.632l-2.635-9.22H3.336C2.6,35.148,2,34.549,2,33.813
		c0-0.735,0.6-1.336,1.336-1.336h0.828l2.635-9.219c0.611-2.139,2.592-3.632,4.815-3.632h26.773c2.225,0,4.203,1.494,4.813,3.632
		l2.635,9.221h0.828c0.735,0,1.336,0.6,1.336,1.336c0,0.735-0.601,1.336-1.336,1.336H31.295l-1.527,2.185
		c-0.25,0.356-0.66,0.569-1.095,0.569H21.42c-0.436,0-0.844-0.213-1.094-0.569l-1.529-2.185H6.943l2.425,8.483
		c0.285,0.998,1.209,1.695,2.246,1.695h26.773c1.037,0,1.961-0.697,2.245-1.695l0.917-3.212c0.163-0.568,0.691-0.968,1.285-0.968
		c0.124,0,0.248,0.017,0.367,0.051c0.708,0.202,1.119,0.943,0.917,1.652L43.2,44.369C42.591,46.507,40.611,48,38.387,48H11.614z
		 M11.614,22.297c-1.037,0-1.961,0.697-2.246,1.694l-2.425,8.485h12.549c0.436,0,0.845,0.213,1.094,0.569l1.529,2.185h5.861
		l1.528-2.185c0.25-0.356,0.659-0.569,1.095-0.569h12.455l-2.423-8.484c-0.284-0.998-1.209-1.695-2.245-1.695H11.614z"/>
	<path fill="#7E7EE0" d="M15.928,15.688c-1.369,0-3.404-0.138-5.327-0.795c-3.119-1.067-4.837-3.215-4.837-6.049
		c0-2.835,1.707-4.983,4.808-6.049C12.086,2.275,13.938,2,15.928,2c1.543,0,2.87,0.323,3.943,0.96
		c1.014,0.602,2.313,1.808,2.746,4.139l0.076,0.409h19.381c0.736,0,1.335,0.599,1.335,1.336c0,0.737-0.599,1.336-1.335,1.336H22.692
		l-0.076,0.408c-0.438,2.329-1.751,3.538-2.776,4.142C18.761,15.365,17.443,15.688,15.928,15.688z M15.928,4.672
		c-1.676,0-3.27,0.231-4.489,0.651c-2.69,0.924-3.002,2.452-3.002,3.521c0,3.871,5.734,4.172,7.491,4.172
		c1.032,0,1.893-0.198,2.556-0.588c0.399-0.235,1.614-0.952,1.614-3.583c0-2.641-1.197-3.352-1.59-3.585
		C17.854,4.869,16.985,4.672,15.928,4.672z"/>
</g>
</svg>
