<?xml version="1.0" encoding="utf-8"?>
<!-- Generator: Adobe Illustrator 16.0.0, SVG Export Plug-In . SVG Version: 6.00 Build 0)  -->
<!DOCTYPE svg PUBLIC "-//W3C//DTD SVG 1.1//EN" "http://www.w3.org/Graphics/SVG/1.1/DTD/svg11.dtd">
<svg version="1.1" id="레이어_1" xmlns="http://www.w3.org/2000/svg" xmlns:xlink="http://www.w3.org/1999/xlink" x="0px"
	 y="0px" width="50px" height="50px" viewBox="0 0 50 50" enable-background="new 0 0 50 50" xml:space="preserve">
<g>
	<g>
		<path fill="none" stroke="#555555" stroke-width="2.2677" d="M16.244,7.953c-1.383-2.122-3.771-3.527-6.494-3.527
			C5.47,4.426,2,7.896,2,12.177c0,3.044,1.759,5.669,4.311,6.938C8.045,14.227,11.639,10.224,16.244,7.953z"/>
		<path fill="none" stroke="#555555" stroke-width="2.2677" d="M48,12.177c0-4.28-3.471-7.751-7.75-7.751
			c-2.723,0-5.111,1.405-6.494,3.527c4.605,2.271,8.199,6.273,9.934,11.161C46.24,17.846,48,15.221,48,12.177z"/>
	</g>
	<g>
		<path fill="none" stroke="#555555" stroke-width="2.2677" d="M43.689,19.114c-1.734-4.888-5.328-8.891-9.935-11.161
			c-2.64-1.302-5.61-2.035-8.755-2.035c-3.143,0-6.115,0.733-8.756,2.035c-4.605,2.271-8.199,6.273-9.933,11.161
			c-0.737,2.074-1.14,4.306-1.14,6.631c0,3.974,1.172,7.671,3.186,10.772c2.364-2.994,6.025-5.301,10.375-6.447
			c-0.134-0.521-0.212-1.061-0.212-1.619c0-3.58,2.901-6.48,6.481-6.48s6.481,2.9,6.481,6.48c0,0.56-0.08,1.1-0.213,1.619
			c4.349,1.146,8.01,3.453,10.377,6.447c2.011-3.103,3.183-6.8,3.183-10.772C44.828,23.42,44.426,21.188,43.689,19.114z"/>
		<path fill="none" stroke="#555555" stroke-width="2.2677" d="M31.27,30.07c-0.721,2.795-3.25,4.861-6.27,4.861
			c-3.02,0-5.549-2.066-6.269-4.861c-4.349,1.146-8.01,3.453-10.375,6.447c3.534,5.448,9.667,9.057,16.643,9.057
			c6.976,0,13.11-3.607,16.646-9.057C39.279,33.523,35.617,31.218,31.27,30.07z"/>
		<path fill="none" stroke="#7E7EE0" stroke-width="2.2677" d="M25,21.971c-3.58,0-6.481,2.9-6.481,6.48
			c0,0.56,0.078,1.1,0.212,1.619c0.72,2.795,3.249,4.861,6.269,4.861c3.02,0,5.549-2.066,6.27-4.861
			c0.133-0.521,0.213-1.061,0.213-1.619C31.482,24.871,28.58,21.971,25,21.971z"/>
	</g>
</g>
</svg>
