<?xml version="1.0" encoding="utf-8"?>
<!-- Generator: Adobe Illustrator 16.0.0, SVG Export Plug-In . SVG Version: 6.00 Build 0)  -->
<!DOCTYPE svg PUBLIC "-//W3C//DTD SVG 1.1//EN" "http://www.w3.org/Graphics/SVG/1.1/DTD/svg11.dtd">
<svg version="1.1" xmlns="http://www.w3.org/2000/svg" xmlns:xlink="http://www.w3.org/1999/xlink" x="0px" y="0px" width="18px"
	 height="18px" viewBox="0 0 18 18" enable-background="new 0 0 18 18" xml:space="preserve">
<g id="레이어_1" display="none">
	
		<polygon display="inline" fill="none" stroke="#223D92" stroke-width="0.8504" stroke-linejoin="round" stroke-miterlimit="10" points="
		15.48,8.743 14.292,5.6 11.268,5.6 11.268,13.169 14.292,13.169 17.535,13.169 17.535,8.743 	"/>
	
		<polygon display="inline" fill="none" stroke="#223D92" stroke-width="0.8504" stroke-linejoin="round" stroke-miterlimit="10" points="
		0.535,3.574 0.535,10.594 0.535,10.594 0.535,13.169 11.268,13.169 11.268,10.594 11.268,3.574 	"/>
	<path display="inline" fill="#FFFFFF" d="M4.93,13.169c0,0.81-0.656,1.465-1.464,1.465C2.656,14.634,2,13.979,2,13.169
		s0.656-1.465,1.465-1.465C4.274,11.704,4.93,12.359,4.93,13.169"/>
	
		<circle display="inline" fill="none" stroke="#223D92" stroke-width="0.8504" stroke-linejoin="round" stroke-miterlimit="10" cx="3.465" cy="13.169" r="1.465"/>
	<path display="inline" fill="#FFFFFF" d="M16,13.169c0,0.81-0.654,1.465-1.462,1.465c-0.812,0-1.466-0.655-1.466-1.465
		s0.654-1.465,1.466-1.465C15.346,11.704,16,12.359,16,13.169"/>
	
		<circle display="inline" fill="none" stroke="#223D92" stroke-width="0.8504" stroke-linejoin="round" stroke-miterlimit="10" cx="14.536" cy="13.169" r="1.464"/>
</g>
<g id="레이어_2">
	
		<rect x="2.534" y="7.442" fill="none" stroke="#223D92" stroke-width="0.8504" stroke-linejoin="round" stroke-miterlimit="10" width="7.778" height="7.069"/>
	<polygon fill="none" stroke="#223D92" stroke-width="0.8504" stroke-linejoin="round" stroke-miterlimit="10" points="8.279,3.488 
		0.5,3.488 2.534,7.442 10.313,7.442 	"/>
	
		<rect x="10.313" y="7.442" fill="none" stroke="#223D92" stroke-width="0.8504" stroke-linejoin="round" stroke-miterlimit="10" width="5.201" height="7.069"/>
	<polygon fill="none" stroke="#223D92" stroke-width="0.8504" stroke-linejoin="round" stroke-miterlimit="10" points="
		15.514,7.442 10.313,7.442 12.301,3.488 17.5,3.488 	"/>
</g>
</svg>
