<?xml version="1.0" encoding="utf-8"?>
<!-- Generator: Adobe Illustrator 16.0.0, SVG Export Plug-In . SVG Version: 6.00 Build 0)  -->
<!DOCTYPE svg PUBLIC "-//W3C//DTD SVG 1.1//EN" "http://www.w3.org/Graphics/SVG/1.1/DTD/svg11.dtd">
<svg version="1.1" id="레이어_1" xmlns="http://www.w3.org/2000/svg" xmlns:xlink="http://www.w3.org/1999/xlink" x="0px"
	 y="0px" width="14px" height="14px" viewBox="0 0 14 14" enable-background="new 0 0 14 14" xml:space="preserve">
<g>
	<g>
		<path fill="#777777" d="M7.82,7.004l6.003-6.001c0.231-0.223,0.236-0.593,0.014-0.824c-0.224-0.231-0.594-0.238-0.825-0.014
			c-0.004,0.005-0.009,0.009-0.015,0.014L6.996,6.18L0.995,0.179C0.763-0.045,0.394-0.038,0.171,0.194
			c-0.218,0.226-0.218,0.584,0,0.81l6,6l-6,6.001c-0.228,0.229-0.228,0.598,0,0.824c0.228,0.228,0.596,0.228,0.824,0l6.001-6
			l6.001,6c0.231,0.225,0.602,0.217,0.826-0.015c0.217-0.226,0.217-0.584,0-0.81L7.82,7.004z"/>
	</g>
</g>
</svg>
