<?xml version="1.0" encoding="utf-8"?>
<!-- Generator: Adobe Illustrator 16.0.0, SVG Export Plug-In . SVG Version: 6.00 Build 0)  -->
<!DOCTYPE svg PUBLIC "-//W3C//DTD SVG 1.1//EN" "http://www.w3.org/Graphics/SVG/1.1/DTD/svg11.dtd">
<svg version="1.1" xmlns="http://www.w3.org/2000/svg" xmlns:xlink="http://www.w3.org/1999/xlink" x="0px" y="0px" width="18px"
	 height="18px" viewBox="0 0 18 18" enable-background="new 0 0 18 18" xml:space="preserve">
<g id="레이어_1" display="none">
	
		<polygon display="inline" fill="none" stroke="#223D92" stroke-width="0.8504" stroke-linejoin="round" stroke-miterlimit="10" points="
		15.48,8.743 14.292,5.6 11.268,5.6 11.268,13.169 14.292,13.169 17.535,13.169 17.535,8.743 	"/>
	
		<polygon display="inline" fill="none" stroke="#223D92" stroke-width="0.8504" stroke-linejoin="round" stroke-miterlimit="10" points="
		0.535,3.574 0.535,10.594 0.535,10.594 0.535,13.169 11.268,13.169 11.268,10.594 11.268,3.574 	"/>
	<path display="inline" fill="#FFFFFF" d="M4.93,13.169c0,0.81-0.656,1.465-1.464,1.465C2.656,14.634,2,13.979,2,13.169
		s0.656-1.465,1.465-1.465C4.274,11.704,4.93,12.359,4.93,13.169"/>
	
		<circle display="inline" fill="none" stroke="#223D92" stroke-width="0.8504" stroke-linejoin="round" stroke-miterlimit="10" cx="3.465" cy="13.169" r="1.465"/>
	<path display="inline" fill="#FFFFFF" d="M16,13.169c0,0.81-0.654,1.465-1.462,1.465c-0.812,0-1.466-0.655-1.466-1.465
		s0.654-1.465,1.466-1.465C15.346,11.704,16,12.359,16,13.169"/>
	
		<circle display="inline" fill="none" stroke="#223D92" stroke-width="0.8504" stroke-linejoin="round" stroke-miterlimit="10" cx="14.536" cy="13.169" r="1.464"/>
</g>
<g id="레이어_2" display="none">
	
		<rect x="2.534" y="7.442" display="inline" fill="none" stroke="#223D92" stroke-width="0.8504" stroke-linejoin="round" stroke-miterlimit="10" width="7.778" height="7.069"/>
	
		<polygon display="inline" fill="none" stroke="#223D92" stroke-width="0.8504" stroke-linejoin="round" stroke-miterlimit="10" points="
		8.279,3.488 0.5,3.488 2.534,7.442 10.313,7.442 	"/>
	
		<rect x="10.313" y="7.442" display="inline" fill="none" stroke="#223D92" stroke-width="0.8504" stroke-linejoin="round" stroke-miterlimit="10" width="5.201" height="7.069"/>
	
		<polygon display="inline" fill="none" stroke="#223D92" stroke-width="0.8504" stroke-linejoin="round" stroke-miterlimit="10" points="
		15.514,7.442 10.313,7.442 12.301,3.488 17.5,3.488 	"/>
</g>
<g id="레이어_3" display="none">
	<path display="inline" fill="none" stroke="#223D92" stroke-width="0.8504" stroke-linejoin="round" stroke-miterlimit="10" d="
		M11.187,7.198L9,9L6.815,7.198c-0.976-0.803-1.539-2-1.539-3.262V2.5h7.449v1.436C12.725,5.198,12.16,6.395,11.187,7.198"/>
	<path display="inline" fill="none" stroke="#223D92" stroke-width="0.8504" stroke-linejoin="round" stroke-miterlimit="10" d="
		M11.187,7.198L9,9L6.815,7.198c-0.976-0.803-1.539-2-1.539-3.262V2.5h7.449v1.436C12.725,5.198,12.16,6.395,11.187,7.198z"/>
	<path display="inline" fill="none" stroke="#223D92" stroke-width="0.8504" stroke-linejoin="round" stroke-miterlimit="10" d="
		M11.187,10.801L9,9l-2.185,1.801c-0.976,0.803-1.539,2.001-1.539,3.264V15.5h7.449v-1.436
		C12.725,12.802,12.16,11.604,11.187,10.801"/>
	<path display="inline" fill="none" stroke="#223D92" stroke-width="0.8504" stroke-linejoin="round" stroke-miterlimit="10" d="
		M11.187,10.801L9,9l-2.185,1.801c-0.976,0.803-1.539,2.001-1.539,3.264V15.5h7.449v-1.436
		C12.725,12.802,12.16,11.604,11.187,10.801z"/>
	
		<line display="inline" fill="none" stroke="#223D92" stroke-width="0.8504" stroke-linejoin="round" stroke-miterlimit="10" x1="3.776" y1="2.5" x2="14.225" y2="2.5"/>
	
		<line display="inline" fill="none" stroke="#223D92" stroke-width="0.8504" stroke-linejoin="round" stroke-miterlimit="10" x1="3.776" y1="2.5" x2="14.225" y2="2.5"/>
	
		<line display="inline" fill="none" stroke="#223D92" stroke-width="0.8504" stroke-linejoin="round" stroke-miterlimit="10" x1="3.776" y1="15.5" x2="14.225" y2="15.5"/>
	
		<line display="inline" fill="none" stroke="#223D92" stroke-width="0.8504" stroke-linejoin="round" stroke-miterlimit="10" x1="3.776" y1="15.5" x2="14.225" y2="15.5"/>
	
		<circle fill="none" stroke="#1D1D1B" stroke-width="0.6181" stroke-linejoin="round" stroke-miterlimit="10" cx="23.764" cy="14.018" r="2.767"/>
	<path fill="#FFFFFF" d="M24.042,14.018c0,1.528-1.238,2.767-2.767,2.767s-2.768-1.238-2.768-2.767s1.239-2.768,2.768-2.768
		S24.042,12.489,24.042,14.018"/>
	
		<circle fill="none" stroke="#1D1D1B" stroke-width="0.6181" stroke-linejoin="round" stroke-miterlimit="10" cx="21.275" cy="14.018" r="2.767"/>
</g>
<g id="레이어_4">
	<path fill="#223D92" d="M3.753,15.967c-1.268,0-2.3-1.031-2.3-2.299V4.052c0-1.268,1.032-2.3,2.3-2.3h7.499
		c1.269,0,2.3,1.032,2.3,2.3v6.466c0,0.26-0.211,0.471-0.471,0.471c-0.259,0-0.469-0.211-0.469-0.471V4.052
		c0-0.749-0.61-1.359-1.36-1.359H3.753c-0.75,0-1.36,0.61-1.36,1.359v9.616c0,0.75,0.61,1.359,1.36,1.359H7.26
		c0.26,0,0.47,0.211,0.47,0.469c0,0.26-0.21,0.471-0.47,0.471H3.753z"/>
	<g>
		<path fill="#223D92" d="M6.621,9.77c-0.067,0-0.146-0.029-0.235-0.088C6.294,9.627,6.232,9.553,6.196,9.453
			c-0.025-0.072-0.05-0.141-0.076-0.207C6.096,9.184,6.077,9.117,6.062,9.049L5.909,8.476L5.597,7.249
			c-0.03-0.121-0.061-0.25-0.091-0.387L5.495,6.814H5.073C5.002,6.82,4.937,6.823,4.871,6.823c-0.05,0-0.101-0.002-0.152-0.005
			C4.611,6.812,4.522,6.771,4.446,6.695C4.339,6.603,4.289,6.506,4.289,6.396c0-0.076,0.021-0.151,0.064-0.225
			c0.042-0.073,0.096-0.123,0.165-0.153c0.086-0.035,0.18-0.053,0.276-0.053C4.85,5.967,4.888,5.968,4.927,5.968
			c0.076,0,0.154-0.002,0.232-0.005h0.112L5.254,5.888C5.229,5.772,5.205,5.643,5.183,5.499C5.16,5.354,5.128,5.169,5.087,4.945
			c-0.01-0.053-0.016-0.103-0.018-0.148C5.067,4.754,5.07,4.709,5.08,4.664c0.009-0.066,0.037-0.118,0.088-0.165
			c0.021-0.021,0.045-0.037,0.074-0.05c0.033-0.014,0.067-0.025,0.105-0.035c0.059-0.02,0.116-0.028,0.175-0.028
			c0.049,0,0.102,0.018,0.158,0.052c0.04,0.021,0.067,0.047,0.087,0.079l0.09,0.158c0.005,0.023,0.016,0.057,0.026,0.086
			c0.01,0.027,0.02,0.056,0.03,0.086c0.009,0.03,0.016,0.061,0.021,0.087l0.016,0.081c0.025,0.155,0.055,0.31,0.088,0.458
			s0.07,0.297,0.111,0.444l0.012,0.046h1.188L7.363,5.92c0.03-0.096,0.061-0.184,0.09-0.264c0.028-0.075,0.06-0.135,0.094-0.178
			c0.029-0.038,0.064-0.061,0.105-0.07c0.012-0.002,0.025-0.004,0.04-0.004c0.039,0,0.085,0.01,0.139,0.028
			c0.059,0.024,0.112,0.082,0.156,0.172c0.05,0.103,0.098,0.209,0.144,0.32l0.015,0.038h1.125c0,0,0.082-0.308,0.115-0.435
			C9.419,5.4,9.451,5.273,9.481,5.146L9.52,5.02c0.01-0.025,0.018-0.058,0.021-0.092c0.002-0.024,0.008-0.053,0.017-0.084
			c0.01-0.027,0.02-0.056,0.029-0.083c0.011-0.029,0.021-0.063,0.032-0.1C9.626,4.643,9.637,4.616,9.649,4.59
			C9.66,4.566,9.674,4.544,9.691,4.522c0.016-0.025,0.027-0.04,0.041-0.05C9.75,4.459,9.768,4.449,9.784,4.44
			C9.849,4.403,9.9,4.386,9.94,4.386c0.059,0,0.116,0.009,0.171,0.027c0.078,0.016,0.144,0.045,0.203,0.089
			c0.034,0.036,0.059,0.089,0.067,0.157c0.02,0.094,0.019,0.188,0,0.286c-0.01,0.051-0.02,0.101-0.026,0.15
			c-0.008,0.048-0.017,0.096-0.026,0.146l-0.008,0.027c-0.025,0.103-0.049,0.206-0.071,0.311c-0.023,0.104-0.047,0.206-0.072,0.307
			l-0.02,0.077h0.589c0.086,0,0.169,0.009,0.249,0.028c0.072,0.018,0.139,0.058,0.202,0.121c0.031,0.025,0.051,0.059,0.066,0.102
			c0.015,0.047,0.023,0.096,0.023,0.145c0,0.055-0.009,0.114-0.024,0.179c-0.02,0.071-0.042,0.104-0.057,0.12
			c-0.038,0.041-0.081,0.071-0.133,0.094c-0.056,0.023-0.112,0.038-0.167,0.045c-0.059,0.007-0.107,0.011-0.148,0.011H9.943
			l-0.01,0.049C9.918,6.927,9.902,6.994,9.888,7.061c-0.016,0.065-0.03,0.128-0.046,0.188c-0.061,0.256-0.124,0.535-0.19,0.84
			C9.586,8.392,9.517,8.673,9.446,8.924c-0.024,0.085-0.052,0.171-0.08,0.257c-0.026,0.082-0.06,0.167-0.1,0.253
			C9.234,9.504,9.194,9.566,9.15,9.621C9.107,9.672,9.06,9.709,9.008,9.734c-0.04,0.018-0.082,0.027-0.125,0.027
			c-0.012,0-0.024-0.002-0.037-0.002C8.788,9.754,8.722,9.725,8.649,9.674c-0.11-0.078-0.194-0.188-0.248-0.329
			C8.342,9.191,8.282,9.048,8.22,8.921C8.206,8.896,8.18,8.839,8.132,8.692C8.091,8.569,8.048,8.438,8.002,8.294l-0.133-0.42
			C7.825,7.735,7.788,7.635,7.756,7.565L7.697,7.438L7.644,7.568C7.598,7.681,7.551,7.811,7.505,7.954
			c-0.046,0.143-0.089,0.283-0.129,0.42L7.192,8.983l-0.131,0.33C7.015,9.43,6.959,9.529,6.895,9.611
			c-0.061,0.076-0.132,0.125-0.216,0.15C6.66,9.766,6.641,9.77,6.621,9.77z M6.448,7.193c0.023,0.107,0.046,0.21,0.069,0.31
			s0.046,0.191,0.069,0.275C6.61,7.864,6.632,7.937,6.653,7.993l0.065,0.18L6.77,7.989c0.036-0.127,0.08-0.29,0.133-0.488
			l0.184-0.687H6.368L6.448,7.193z M8.418,6.893c0.056,0.198,0.107,0.386,0.156,0.563c0.05,0.184,0.095,0.314,0.138,0.398
			l0.069,0.139l0.044-0.148c0.016-0.051,0.033-0.115,0.051-0.193C8.895,7.575,8.913,7.493,8.93,7.406
			C8.948,7.32,8.966,7.231,8.987,7.141c0.02-0.091,0.04-0.174,0.061-0.249l0.021-0.077H8.396L8.418,6.893z"/>
	</g>
	<path fill="#223D92" d="M11.66,16.248c-0.147,0-0.285-0.057-0.388-0.16l-2.563-2.563c-0.104-0.105-0.161-0.242-0.161-0.389
		s0.057-0.285,0.161-0.389s0.242-0.162,0.389-0.162s0.285,0.059,0.388,0.162l2.174,2.174l3.949-3.949
		c0.104-0.104,0.241-0.16,0.388-0.16s0.285,0.057,0.39,0.16c0.103,0.105,0.16,0.242,0.16,0.391c0,0.146-0.058,0.283-0.16,0.387
		l-4.337,4.336C11.945,16.191,11.807,16.248,11.66,16.248z"/>
</g>
</svg>
