<?xml version="1.0" encoding="utf-8"?>
<!-- Generator: Adobe Illustrator 16.0.0, SVG Export Plug-In . SVG Version: 6.00 Build 0)  -->
<!DOCTYPE svg PUBLIC "-//W3C//DTD SVG 1.1//EN" "http://www.w3.org/Graphics/SVG/1.1/DTD/svg11.dtd">
<svg version="1.1" xmlns="http://www.w3.org/2000/svg" xmlns:xlink="http://www.w3.org/1999/xlink" x="0px" y="0px" width="18px"
	 height="18px" viewBox="0 0 18 18" enable-background="new 0 0 18 18" xml:space="preserve">
<g id="레이어_1" display="none">
	
		<polygon display="inline" fill="none" stroke="#223D92" stroke-width="0.8504" stroke-linejoin="round" stroke-miterlimit="10" points="
		15.48,8.743 14.292,5.6 11.268,5.6 11.268,13.169 14.292,13.169 17.535,13.169 17.535,8.743 	"/>
	
		<polygon display="inline" fill="none" stroke="#223D92" stroke-width="0.8504" stroke-linejoin="round" stroke-miterlimit="10" points="
		0.535,3.574 0.535,10.594 0.535,10.594 0.535,13.169 11.268,13.169 11.268,10.594 11.268,3.574 	"/>
	<path display="inline" fill="#FFFFFF" d="M4.93,13.169c0,0.81-0.656,1.465-1.464,1.465C2.656,14.634,2,13.979,2,13.169
		s0.656-1.465,1.465-1.465C4.274,11.704,4.93,12.359,4.93,13.169"/>
	
		<circle display="inline" fill="none" stroke="#223D92" stroke-width="0.8504" stroke-linejoin="round" stroke-miterlimit="10" cx="3.465" cy="13.169" r="1.465"/>
	<path display="inline" fill="#FFFFFF" d="M16,13.169c0,0.81-0.654,1.465-1.462,1.465c-0.812,0-1.466-0.655-1.466-1.465
		s0.654-1.465,1.466-1.465C15.346,11.704,16,12.359,16,13.169"/>
	
		<circle display="inline" fill="none" stroke="#223D92" stroke-width="0.8504" stroke-linejoin="round" stroke-miterlimit="10" cx="14.536" cy="13.169" r="1.464"/>
</g>
<g id="레이어_2" display="none">
	
		<rect x="2.534" y="7.442" display="inline" fill="none" stroke="#223D92" stroke-width="0.8504" stroke-linejoin="round" stroke-miterlimit="10" width="7.778" height="7.069"/>
	
		<polygon display="inline" fill="none" stroke="#223D92" stroke-width="0.8504" stroke-linejoin="round" stroke-miterlimit="10" points="
		8.279,3.488 0.5,3.488 2.534,7.442 10.313,7.442 	"/>
	
		<rect x="10.313" y="7.442" display="inline" fill="none" stroke="#223D92" stroke-width="0.8504" stroke-linejoin="round" stroke-miterlimit="10" width="5.201" height="7.069"/>
	
		<polygon display="inline" fill="none" stroke="#223D92" stroke-width="0.8504" stroke-linejoin="round" stroke-miterlimit="10" points="
		15.514,7.442 10.313,7.442 12.301,3.488 17.5,3.488 	"/>
</g>
<g id="레이어_3">
	<path fill="none" stroke="#223D92" stroke-width="0.8504" stroke-linejoin="round" stroke-miterlimit="10" d="M11.187,7.198L9,9
		L6.815,7.198c-0.976-0.803-1.539-2-1.539-3.262V2.5h7.449v1.436C12.725,5.198,12.16,6.395,11.187,7.198"/>
	<path fill="none" stroke="#223D92" stroke-width="0.8504" stroke-linejoin="round" stroke-miterlimit="10" d="M11.187,7.198L9,9
		L6.815,7.198c-0.976-0.803-1.539-2-1.539-3.262V2.5h7.449v1.436C12.725,5.198,12.16,6.395,11.187,7.198z"/>
	<path fill="none" stroke="#223D92" stroke-width="0.8504" stroke-linejoin="round" stroke-miterlimit="10" d="M11.187,10.801L9,9
		l-2.185,1.801c-0.976,0.803-1.539,2.001-1.539,3.264V15.5h7.449v-1.436C12.725,12.802,12.16,11.604,11.187,10.801"/>
	<path fill="none" stroke="#223D92" stroke-width="0.8504" stroke-linejoin="round" stroke-miterlimit="10" d="M11.187,10.801L9,9
		l-2.185,1.801c-0.976,0.803-1.539,2.001-1.539,3.264V15.5h7.449v-1.436C12.725,12.802,12.16,11.604,11.187,10.801z"/>
	
		<line fill="none" stroke="#223D92" stroke-width="0.8504" stroke-linejoin="round" stroke-miterlimit="10" x1="3.776" y1="2.5" x2="14.225" y2="2.5"/>
	
		<line fill="none" stroke="#223D92" stroke-width="0.8504" stroke-linejoin="round" stroke-miterlimit="10" x1="3.776" y1="2.5" x2="14.225" y2="2.5"/>
	
		<line fill="none" stroke="#223D92" stroke-width="0.8504" stroke-linejoin="round" stroke-miterlimit="10" x1="3.776" y1="15.5" x2="14.225" y2="15.5"/>
	
		<line fill="none" stroke="#223D92" stroke-width="0.8504" stroke-linejoin="round" stroke-miterlimit="10" x1="3.776" y1="15.5" x2="14.225" y2="15.5"/>
	
		<circle display="none" fill="none" stroke="#1D1D1B" stroke-width="0.6181" stroke-linejoin="round" stroke-miterlimit="10" cx="23.764" cy="14.018" r="2.767"/>
	<path display="none" fill="#FFFFFF" d="M24.042,14.018c0,1.528-1.238,2.767-2.767,2.767s-2.768-1.238-2.768-2.767
		s1.239-2.768,2.768-2.768S24.042,12.489,24.042,14.018"/>
	
		<circle display="none" fill="none" stroke="#1D1D1B" stroke-width="0.6181" stroke-linejoin="round" stroke-miterlimit="10" cx="21.275" cy="14.018" r="2.767"/>
</g>
</svg>
