<?xml version="1.0" encoding="utf-8"?>
<!-- Generator: Adobe Illustrator 16.0.0, SVG Export Plug-In . SVG Version: 6.00 Build 0)  -->
<!DOCTYPE svg PUBLIC "-//W3C//DTD SVG 1.1//EN" "http://www.w3.org/Graphics/SVG/1.1/DTD/svg11.dtd">
<svg version="1.1" id="레이어_1" xmlns="http://www.w3.org/2000/svg" xmlns:xlink="http://www.w3.org/1999/xlink" x="0px"
	 y="0px" width="18px" height="18px" viewBox="0 0 18 18" enable-background="new 0 0 18 18" xml:space="preserve">
<polygon fill="none" stroke="#223D92" stroke-width="0.8504" stroke-linejoin="round" stroke-miterlimit="10" points="15.481,8.743 
	14.292,5.6 11.267,5.6 11.267,13.169 14.292,13.169 17.535,13.169 17.535,8.743 "/>
<polygon fill="none" stroke="#223D92" stroke-width="0.8504" stroke-linejoin="round" stroke-miterlimit="10" points="0.535,3.574 
	0.535,10.594 0.535,10.594 0.535,13.169 11.267,13.169 11.267,10.594 11.267,3.574 "/>
<path fill="#FFFFFF" d="M4.93,13.169c0,0.809-0.656,1.465-1.464,1.465C2.656,14.634,2,13.978,2,13.169s0.656-1.465,1.465-1.465
	C4.274,11.704,4.93,12.36,4.93,13.169"/>
<circle fill="none" stroke="#223D92" stroke-width="0.8504" stroke-linejoin="round" stroke-miterlimit="10" cx="3.465" cy="13.169" r="1.465"/>
<path fill="#FFFFFF" d="M16,13.169c0,0.809-0.654,1.465-1.462,1.465c-0.811,0-1.466-0.656-1.466-1.465s0.655-1.465,1.466-1.465
	C15.346,11.704,16,12.36,16,13.169"/>
<circle fill="none" stroke="#223D92" stroke-width="0.8504" stroke-linejoin="round" stroke-miterlimit="10" cx="14.536" cy="13.169" r="1.464"/>
</svg>
