<?xml version="1.0" encoding="utf-8"?>
<!-- Generator: Adobe Illustrator 16.0.0, SVG Export Plug-In . SVG Version: 6.00 Build 0)  -->
<!DOCTYPE svg PUBLIC "-//W3C//DTD SVG 1.1//EN" "http://www.w3.org/Graphics/SVG/1.1/DTD/svg11.dtd">
<svg version="1.1" id="Capa_1" xmlns="http://www.w3.org/2000/svg" xmlns:xlink="http://www.w3.org/1999/xlink" x="0px" y="0px"
	 width="35px" height="35px" viewBox="0 0 35 35" enable-background="new 0 0 35 35" xml:space="preserve">
<g>
	<g>
		<path fill="#666666" d="M7.656,34c-1.985,0-3.601-1.615-3.601-3.602V16.453c0-1.986,1.616-3.602,3.601-3.602h2.959V7.73
			c0-3.711,3.088-6.73,6.882-6.73c3.796,0,6.884,3.019,6.884,6.73v5.121h2.963c1.986,0,3.602,1.616,3.602,3.602v13.945
			c0,1.985-1.614,3.602-3.602,3.602H7.656z M7.656,14.586c-1.029,0-1.867,0.837-1.867,1.867v13.945c0,1.028,0.838,1.867,1.867,1.867
			h19.688c1.029,0,1.867-0.839,1.867-1.867V16.453c0-1.03-0.838-1.867-1.867-1.867H7.656z M17.497,2.734
			c-2.838,0-5.148,2.241-5.148,4.996v5.121h10.297V7.73C22.646,4.976,20.337,2.734,17.497,2.734z"/>
	</g>
</g>
<g>
	<g>
		<g>
			<path fill="#3531DB" d="M17.497,27.574c-0.477,0-0.867-0.389-0.867-0.867v-3.273l-0.229-0.146
				c-0.583-0.376-0.931-1.014-0.931-1.706c0-1.119,0.91-2.029,2.029-2.029s2.028,0.91,2.028,2.029c0,0.692-0.35,1.332-0.935,1.708
				l-0.229,0.146v3.271C18.365,27.186,17.976,27.574,17.497,27.574z"/>
		</g>
	</g>
</g>
</svg>
