<?xml version="1.0" encoding="utf-8"?>
<!-- Generator: Adobe Illustrator 16.0.0, SVG Export Plug-In . SVG Version: 6.00 Build 0)  -->
<!DOCTYPE svg PUBLIC "-//W3C//DTD SVG 1.1//EN" "http://www.w3.org/Graphics/SVG/1.1/DTD/svg11.dtd">
<svg version="1.1" id="레이어_1" xmlns="http://www.w3.org/2000/svg" xmlns:xlink="http://www.w3.org/1999/xlink" x="0px"
	 y="0px" width="20px" height="20px" viewBox="0 0 20 20" enable-background="new 0 0 20 20" xml:space="preserve">
<g id="레이어_3">
	<circle fill="none" stroke="#555555" stroke-width="1.1339" stroke-miterlimit="10" cx="10" cy="10" r="9"/>
	<path fill="#555555" d="M10.887,7.125c-0.314,0-0.576-0.099-0.799-0.305C9.872,6.619,9.765,6.384,9.765,6.104
		s0.106-0.516,0.325-0.721c0.222-0.207,0.482-0.308,0.797-0.308c0.313,0,0.571,0.1,0.791,0.307C11.895,5.586,12,5.822,12,6.104
		c0,0.282-0.105,0.518-0.32,0.718C11.458,7.027,11.199,7.125,10.887,7.125z"/>
	<path fill="#555555" d="M10.143,14.925c-0.492,0-0.873-0.116-1.132-0.346c-0.256-0.226-0.379-0.499-0.379-0.843
		c0-0.154,0.011-0.312,0.033-0.469c0.021-0.162,0.057-0.348,0.106-0.555l0.575-2.025C9.4,10.483,9.444,10.29,9.48,10.112
		c0.038-0.192,0.057-0.369,0.057-0.53c0-0.331-0.081-0.575-0.24-0.729C9.134,8.702,8.875,8.629,8.502,8.629
		C8.337,8.629,8.168,8.653,8,8.701l0.012-0.053c0.328-0.13,0.644-0.243,0.945-0.34c0.317-0.101,0.62-0.152,0.901-0.152
		c0.486,0,0.863,0.114,1.115,0.338c0.243,0.221,0.364,0.499,0.364,0.852c0,0.085-0.011,0.232-0.03,0.444
		c-0.019,0.203-0.055,0.393-0.104,0.566l-0.576,2.037c-0.048,0.174-0.093,0.367-0.132,0.584c-0.041,0.229-0.059,0.403-0.059,0.521
		c0,0.354,0.087,0.602,0.273,0.752c0.169,0.139,0.428,0.204,0.791,0.204c0.148,0,0.313-0.024,0.501-0.073l-0.013,0.053
		c-0.4,0.156-0.725,0.278-0.975,0.365C10.771,14.883,10.477,14.925,10.143,14.925z"/>
</g>
</svg>
