<?xml version="1.0" encoding="utf-8"?>
<!-- Generator: Adobe Illustrator 16.0.0, SVG Export Plug-In . SVG Version: 6.00 Build 0)  -->
<!DOCTYPE svg PUBLIC "-//W3C//DTD SVG 1.1//EN" "http://www.w3.org/Graphics/SVG/1.1/DTD/svg11.dtd">
<svg version="1.1" id="레이어_1" xmlns="http://www.w3.org/2000/svg" xmlns:xlink="http://www.w3.org/1999/xlink" x="0px"
	 y="0px" width="20px" height="20px" viewBox="3 1.5 20 20" enable-background="new 3 1.5 20 20" xml:space="preserve">
<path fill="#555555" d="M9.896,14.82c-0.222,0-0.414-0.141-0.479-0.354L6.281,4.188L3.473,4.292c-0.277,0-0.502-0.225-0.502-0.5
	c0-0.276,0.225-0.501,0.5-0.501h3.211c0.221,0,0.413,0.143,0.479,0.354l3.136,10.278l9.516-0.104l1.99-6.172l-10.569,0.09
	c-0.275,0-0.5-0.225-0.5-0.5s0.225-0.5,0.5-0.5h11.236c0.16,0,0.313,0.078,0.405,0.208c0.094,0.131,0.121,0.301,0.068,0.454
	l-2.402,7.083c-0.07,0.202-0.262,0.34-0.473,0.34L9.896,14.82L9.896,14.82z"/>
<path fill="#555555" d="M11.557,20.151c-1.18,0-2.14-0.96-2.14-2.141c0-1.179,0.96-2.138,2.14-2.138s2.139,0.958,2.139,2.138
	C13.696,19.191,12.737,20.151,11.557,20.151z M11.557,16.872c-0.628,0-1.139,0.511-1.139,1.139c0,0.629,0.511,1.14,1.139,1.14
	c0.628,0,1.139-0.511,1.139-1.14C12.697,17.384,12.186,16.872,11.557,16.872z"/>
<path fill="#555555" d="M18.382,20.151c-1.18,0-2.14-0.96-2.14-2.141c0-1.179,0.96-2.138,2.14-2.138
	c1.181,0,2.141,0.958,2.141,2.138C20.522,19.191,19.563,20.151,18.382,20.151z M18.382,16.872c-0.628,0-1.139,0.511-1.139,1.139
	c0,0.629,0.511,1.14,1.139,1.14c0.629,0,1.14-0.511,1.14-1.14C19.521,17.384,19.011,16.872,18.382,16.872z"/>
<g>
	<g>
		<path display="none" fill="#AAAAAA" d="M24.865,42.813c-0.129,0-0.249-0.051-0.34-0.142l-1.562-1.562l-2.205,0.031
			c-1.521,0-2.76-1.24-2.76-2.762v-5.854c0-1.521,1.237-2.76,2.76-2.76H24.6c0.264,0,0.479,0.215,0.479,0.479
			s-0.215,0.479-0.479,0.479h-3.841c-0.993,0-1.802,0.81-1.802,1.801v5.854c0,0.994,0.809,1.802,1.802,1.802h2.472
			c0.188,0,0.36,0.112,0.438,0.289l0.719,0.709v-0.519c0-0.267,0.215-0.479,0.479-0.479h4.104c0.988,0,1.801-0.808,1.801-1.802
			v-2.623c0-0.264,0.213-0.479,0.479-0.479c0.265,0,0.479,0.22,0.479,0.479v2.623c0,1.521-1.231,2.761-2.758,2.761h-3.628v1.192
			c0,0.194-0.116,0.371-0.297,0.44C24.99,42.798,24.928,42.813,24.865,42.813z"/>
	</g>
</g>
<g>
	<path display="none" fill="#AAAAAA" d="M31.777,32.4c-0.096,0-0.189-0.019-0.276-0.053c-0.088-0.037-0.163-0.09-0.226-0.152
		c-0.063-0.063-0.108-0.135-0.146-0.223c-0.035-0.091-0.053-0.184-0.053-0.279c0-0.094,0.018-0.187,0.052-0.275
		c0.039-0.092,0.087-0.165,0.147-0.229c0.062-0.063,0.137-0.114,0.224-0.152c0.088-0.037,0.183-0.059,0.278-0.059
		c0.098,0,0.188,0.021,0.277,0.058c0.088,0.039,0.158,0.09,0.227,0.153c0.063,0.062,0.111,0.137,0.15,0.225
		c0.029,0.089,0.053,0.182,0.053,0.277c0,0.101-0.021,0.192-0.053,0.279c-0.039,0.088-0.093,0.159-0.152,0.225
		c-0.063,0.063-0.139,0.113-0.227,0.15C31.967,32.383,31.874,32.4,31.777,32.4z M31.413,29.896l-0.063-0.9
		c0-0.217,0.041-0.357,0.127-0.479c0.074-0.109,0.174-0.219,0.295-0.317c0.107-0.093,0.23-0.187,0.365-0.281
		c0.125-0.089,0.234-0.188,0.346-0.295c0.104-0.104,0.188-0.222,0.263-0.358c0.063-0.127,0.098-0.283,0.098-0.459
		c0-0.127-0.022-0.236-0.071-0.336c-0.047-0.101-0.109-0.187-0.197-0.258c-0.084-0.07-0.186-0.126-0.301-0.164
		c-0.117-0.039-0.244-0.058-0.381-0.058c-0.187,0-0.346,0.022-0.477,0.067c-0.134,0.045-0.247,0.096-0.34,0.149
		c-0.094,0.058-0.167,0.104-0.227,0.151c-0.078,0.064-0.146,0.096-0.209,0.096c-0.115,0-0.211-0.057-0.273-0.159l-0.271-0.433
		l0.059-0.057c0.104-0.099,0.221-0.188,0.346-0.275c0.126-0.09,0.268-0.166,0.415-0.233c0.149-0.065,0.313-0.121,0.485-0.159
		c0.172-0.037,0.363-0.059,0.563-0.059c0.269,0,0.519,0.039,0.746,0.117c0.229,0.076,0.431,0.189,0.601,0.334
		c0.17,0.146,0.305,0.322,0.398,0.529c0.098,0.207,0.146,0.441,0.146,0.698s-0.039,0.484-0.117,0.675
		c-0.072,0.188-0.176,0.354-0.293,0.496c-0.113,0.139-0.243,0.26-0.385,0.365l-0.371,0.28c-0.105,0.083-0.205,0.167-0.283,0.25
		c-0.064,0.073-0.104,0.149-0.113,0.237l-0.104,0.832h-0.776V29.896z"/>
	<g>
		<path display="none" fill="#AAAAAA" d="M35.469,35.789c-0.123,0-0.246-0.051-0.338-0.141l-1.422-1.42
			c-0.37,0.146-0.852,0.207-1.334,0.207h-0.961c-3.102,0-5.624-2.521-5.624-5.625c0-3.104,2.522-5.625,5.624-5.625h0.961
			C35.479,23.189,38,25.711,38,28.813c0,0.9-0.205,1.761-0.611,2.555c-0.353,0.691-0.863,1.322-1.478,1.82l0.036,2.123
			c0,0.191-0.116,0.366-0.297,0.441C35.59,35.775,35.527,35.789,35.469,35.789z M33.891,33.251c0.125,0,0.248,0.051,0.338,0.14
			l0.767,0.762v-1.229c0-0.15,0.065-0.293,0.188-0.382c1.18-0.892,1.858-2.251,1.858-3.729c0-2.572-2.095-4.666-4.667-4.666h-0.961
			c-2.572,0-4.665,2.094-4.665,4.666s2.093,4.666,4.665,4.666h0.961c0.468,0,0.932-0.067,1.372-0.205
			C33.792,33.261,33.84,33.251,33.891,33.251z"/>
	</g>
</g>
</svg>
