<?xml version="1.0" encoding="utf-8"?>
<!-- Generator: Adobe Illustrator 16.0.0, SVG Export Plug-In . SVG Version: 6.00 Build 0)  -->
<!DOCTYPE svg PUBLIC "-//W3C//DTD SVG 1.1//EN" "http://www.w3.org/Graphics/SVG/1.1/DTD/svg11.dtd">
<svg version="1.1" xmlns="http://www.w3.org/2000/svg" xmlns:xlink="http://www.w3.org/1999/xlink" x="0px" y="0px" width="20px"
	 height="20px" viewBox="0 0 20 20" enable-background="new 0 0 20 20" xml:space="preserve">
<g id="레이어_1" display="none">
	<g display="inline">
		<g>
			<g>
				<path fill="#656565" d="M14.396,16.339c-0.257,0-0.467-0.208-0.467-0.466v-0.366c0-0.147-0.12-0.27-0.268-0.27
					s-0.269,0.122-0.269,0.27v0.366c0,0.258-0.209,0.466-0.466,0.466H0.832C0.373,16.339,0,15.966,0,15.507V4.494
					c0-0.46,0.373-0.833,0.832-0.833h12.095c0.257,0,0.466,0.209,0.466,0.466v0.367c0,0.148,0.121,0.268,0.269,0.268
					s0.268-0.119,0.268-0.268V4.127c0-0.257,0.21-0.466,0.467-0.466h4.772C19.627,3.661,20,4.034,20,4.494v11.013
					c0,0.459-0.373,0.832-0.832,0.832H14.396z M19.069,15.408V4.594h-4.214c-0.042,0.454-0.322,0.834-0.729,1.006v0.362
					c0,0.258-0.21,0.466-0.466,0.466s-0.466-0.208-0.466-0.466V5.6c-0.412-0.174-0.693-0.562-0.73-1.006H0.932v10.814h11.535
					c0.042-0.455,0.322-0.837,0.729-1.008v-0.363c0-0.256,0.21-0.465,0.466-0.465s0.466,0.209,0.466,0.465V14.4
					c0.412,0.174,0.693,0.563,0.729,1.008H19.069z"/>
				<path fill="#656565" d="M19.168,3.783h-4.772c-0.19,0-0.345,0.154-0.345,0.344v0.367c0,0.215-0.175,0.39-0.39,0.39
					s-0.39-0.175-0.39-0.39V4.127c0-0.19-0.154-0.344-0.345-0.344H0.832c-0.392,0-0.71,0.319-0.71,0.711v11.013
					c0,0.391,0.318,0.711,0.71,0.711h12.095c0.19,0,0.345-0.154,0.345-0.345v-0.366c0-0.216,0.175-0.392,0.39-0.392
					s0.39,0.176,0.39,0.392v0.366c0,0.19,0.154,0.345,0.345,0.345h4.772c0.391,0,0.711-0.32,0.711-0.711V4.494
					C19.879,4.102,19.559,3.783,19.168,3.783z M19.19,15.507c0,0.012-0.011,0.022-0.022,0.022h-4.43v-0.022
					c0-0.475-0.307-0.878-0.734-1.022v-0.447c0-0.189-0.152-0.343-0.343-0.343c-0.191,0-0.344,0.153-0.344,0.343v0.447
					c-0.427,0.145-0.733,0.548-0.733,1.022v0.022H0.832c-0.012,0-0.022-0.011-0.022-0.022V4.494c0-0.013,0.011-0.023,0.022-0.023
					h11.752v0.023c0,0.474,0.307,0.878,0.733,1.021v0.447c0,0.189,0.152,0.345,0.344,0.345c0.19,0,0.343-0.155,0.343-0.345V5.516
					c0.428-0.144,0.734-0.548,0.734-1.021V4.471h4.43c0.012,0,0.022,0.011,0.022,0.023V15.507L19.19,15.507z"/>
			</g>
		</g>
	</g>
	<g display="inline">
		<g>
			<g>
				<path fill="#3531DB" d="M13.66,9.243c-0.256,0-0.466-0.209-0.466-0.467V8.041c0-0.257,0.21-0.465,0.466-0.465
					s0.464,0.208,0.464,0.465v0.734C14.124,9.033,13.916,9.243,13.66,9.243z"/>
				<path fill="#3531DB" d="M13.66,7.697c-0.191,0-0.344,0.154-0.344,0.344v0.734c0,0.189,0.152,0.345,0.344,0.345
					c0.19,0,0.343-0.155,0.343-0.345V8.041C14.003,7.851,13.851,7.697,13.66,7.697z"/>
			</g>
		</g>
	</g>
	<g display="inline">
		<g>
			<g>
				<path fill="#3531DB" d="M13.66,12.425c-0.256,0-0.466-0.208-0.466-0.465v-0.736c0-0.257,0.21-0.465,0.466-0.465
					s0.464,0.208,0.464,0.465v0.736C14.124,12.217,13.916,12.425,13.66,12.425z"/>
				<path fill="#3531DB" d="M13.66,10.88c-0.191,0-0.344,0.155-0.344,0.344v0.736c0,0.188,0.152,0.344,0.344,0.344
					c0.19,0,0.343-0.155,0.343-0.344v-0.736C14.003,11.035,13.851,10.88,13.66,10.88z"/>
			</g>
		</g>
	</g>
	<g display="inline">
		<path fill="#3531DB" d="M8.199,6.952c0.443,0.187,0.814,0.441,1.114,0.762C9.61,8.036,9.821,8.396,9.947,8.795H8.391
			C8.249,8.551,8.037,8.353,7.748,8.2C7.46,8.047,7.13,7.97,6.757,7.97c-0.379,0-0.722,0.087-1.026,0.261
			c-0.306,0.173-0.546,0.415-0.72,0.723C4.837,9.263,4.75,9.611,4.75,10s0.087,0.74,0.261,1.054c0.174,0.314,0.414,0.56,0.72,0.735
			c0.305,0.176,0.647,0.265,1.026,0.265c0.316,0,0.603-0.059,0.863-0.171c0.26-0.115,0.471-0.267,0.633-0.456
			c0.164-0.188,0.272-0.391,0.324-0.604H6.64V9.627h3.446V10c0,0.633-0.146,1.202-0.438,1.708s-0.697,0.902-1.207,1.189
			c-0.511,0.288-1.083,0.432-1.715,0.432c-0.643,0-1.223-0.144-1.738-0.432c-0.516-0.287-0.92-0.684-1.214-1.189
			C3.48,11.202,3.334,10.634,3.334,10c0-0.632,0.146-1.202,0.439-1.708c0.294-0.505,0.698-0.902,1.214-1.189
			c0.516-0.288,1.095-0.432,1.738-0.432C7.265,6.671,7.757,6.765,8.199,6.952z"/>
	</g>
</g>
<g id="레이어_2">
	<circle fill="none" stroke="#777777" stroke-width="0.9921" stroke-miterlimit="10" cx="10" cy="10" r="7.5"/>
	<g>
		<path fill="#2D2DEA" d="M7.631,6.25h2.88c0.644,0,1.197,0.114,1.661,0.341s0.817,0.546,1.062,0.957
			c0.246,0.411,0.368,0.892,0.368,1.445c0,0.557-0.122,1.044-0.368,1.458c-0.244,0.415-0.598,0.735-1.062,0.962
			c-0.464,0.228-1.018,0.34-1.661,0.34H9.305v1.998H7.631V6.25z M10.438,10.271c0.473,0,0.838-0.11,1.1-0.331
			c0.26-0.221,0.39-0.537,0.39-0.947c0-0.412-0.13-0.724-0.39-0.939c-0.262-0.215-0.627-0.322-1.1-0.322H9.305v2.54H10.438z"/>
	</g>
</g>
</svg>
