<?xml version="1.0" encoding="utf-8"?>
<!-- Generator: Adobe Illustrator 16.0.0, SVG Export Plug-In . SVG Version: 6.00 Build 0)  -->
<!DOCTYPE svg PUBLIC "-//W3C//DTD SVG 1.1//EN" "http://www.w3.org/Graphics/SVG/1.1/DTD/svg11.dtd">
<svg version="1.1" id="레이어_1" xmlns="http://www.w3.org/2000/svg" xmlns:xlink="http://www.w3.org/1999/xlink" x="0px"
	 y="0px" width="20px" height="20px" viewBox="0 0 20 20" enable-background="new 0 0 20 20" xml:space="preserve">
<g>
	<g>
		<path fill="#555555" d="M6.871,19.813c-0.133,0-0.258-0.052-0.353-0.146l-1.558-1.56l-2.186,0.037C1.244,18.145,0,16.898,0,15.369
			V9.527c0-1.53,1.245-2.774,2.775-2.774h3.832c0.275,0,0.498,0.223,0.498,0.498S6.881,7.749,6.606,7.749H2.774
			c-0.981,0-1.779,0.798-1.779,1.778v5.842c0,0.98,0.798,1.779,1.779,1.779h2.465c0.197,0,0.377,0.117,0.457,0.3l0.712,0.7
			l-0.033-0.502c0-0.275,0.223-0.498,0.498-0.498h4.096c0.98,0,1.777-0.799,1.777-1.779v-2.618c0-0.274,0.225-0.498,0.497-0.498
			c0.274,0,0.497,0.224,0.497,0.498v2.618c0,1.529-1.243,2.775-2.771,2.775H7.35l0.02,1.17c0,0.203-0.125,0.387-0.31,0.457
			C6.998,19.799,6.934,19.813,6.871,19.813z"/>
		<path display="none" fill="#AAAAAA" d="M6.865,19.813c-0.128,0-0.249-0.051-0.339-0.142l-1.561-1.562L2.76,18.141
			C1.238,18.141,0,16.9,0,15.38V9.526c0-1.522,1.238-2.76,2.76-2.76h3.839c0.264,0,0.479,0.215,0.479,0.479
			c0,0.264-0.215,0.479-0.479,0.479H2.76c-0.994,0-1.802,0.809-1.802,1.802v5.854c0,0.994,0.808,1.802,1.802,1.802h2.47
			c0.19,0,0.362,0.112,0.439,0.289l0.717,0.709l0.001-0.519c0-0.267,0.215-0.479,0.479-0.479h4.104c0.988,0,1.801-0.808,1.801-1.802
			v-2.623c0-0.264,0.213-0.479,0.479-0.479c0.264,0,0.479,0.219,0.479,0.479v2.623c0,1.521-1.231,2.761-2.758,2.761H7.344v1.192
			c0,0.194-0.117,0.371-0.297,0.44C6.99,19.798,6.928,19.813,6.865,19.813z"/>
		<path fill="#555555" d="M6.871,19.714c-0.106,0-0.206-0.041-0.282-0.114l-1.558-1.56l-2.256,0.006c-1.476,0-2.676-1.2-2.676-2.677
			V9.527c0-1.475,1.2-2.675,2.676-2.675h3.832c0.22,0,0.399,0.179,0.399,0.399c0,0.22-0.18,0.399-0.4,0.399H2.774
			c-1.036,0-1.877,0.842-1.877,1.877v5.842c0,1.033,0.842,1.874,1.877,1.874h2.465c0.159,0,0.302,0.095,0.366,0.241l0.9,0.897
			l-0.033-0.737c0-0.225,0.18-0.401,0.4-0.401h4.096c1.034,0,1.876-0.841,1.876-1.874v-2.618c0-0.22,0.18-0.399,0.398-0.399
			c0.218,0,0.398,0.183,0.4,0.399v2.618c0,1.477-1.199,2.677-2.676,2.677H7.251l0.02,1.269c0,0.164-0.097,0.312-0.247,0.369
			C6.975,19.703,6.923,19.714,6.871,19.714z"/>
		<path fill="#555555" d="M13.25,12.376c-0.209,0-0.38,0.172-0.38,0.381v2.623c0,1.048-0.853,1.897-1.899,1.897H6.866
			c-0.21,0-0.38,0.172-0.38,0.382l-0.001,0.756l-0.907-0.908c-0.058-0.133-0.193-0.229-0.348-0.229H2.76
			c-1.048,0-1.901-0.852-1.901-1.896V9.526c0-1.048,0.853-1.901,1.901-1.901h3.839c0.208,0,0.38-0.17,0.38-0.38
			s-0.171-0.38-0.38-0.38H2.76c-1.467,0-2.661,1.193-2.661,2.661v5.854c0,1.468,1.194,2.662,2.661,2.662h2.275l1.561,1.562
			c0.073,0.071,0.169,0.11,0.269,0.11c0.049,0,0.098-0.01,0.146-0.03c0.143-0.058,0.235-0.191,0.235-0.351v-1.291h3.727
			c1.465,0,2.659-1.194,2.659-2.662v-2.623C13.63,12.548,13.46,12.376,13.25,12.376z"/>
	</g>
</g>
<g>
	<g>
		<path fill="#555555" d="M3.547,14.085c-0.22,0-0.399-0.18-0.399-0.397s0.179-0.397,0.399-0.397h7.006
			c0.219,0,0.396,0.18,0.396,0.397c0,0.221-0.18,0.397-0.396,0.397H3.547z"/>
		<path fill="#555555" d="M10.553,13.309H3.532c-0.21,0-0.38,0.172-0.38,0.381s0.17,0.381,0.38,0.381h7.021
			c0.207,0,0.379-0.172,0.379-0.381S10.76,13.309,10.553,13.309z"/>
	</g>
</g>
<g>
	<path fill="#555555" d="M3.547,11.507c-0.22,0-0.399-0.179-0.399-0.396c0-0.22,0.179-0.398,0.399-0.398h4.538
		c0.22,0,0.399,0.179,0.399,0.398c0,0.219-0.179,0.396-0.399,0.396H3.547z"/>
	<path fill="#555555" d="M8.081,10.729H3.532c-0.21,0-0.38,0.171-0.38,0.38s0.17,0.379,0.38,0.379h4.549
		c0.209,0,0.38-0.17,0.38-0.379S8.29,10.729,8.081,10.729z"/>
</g>
<g>
	<path display="none" fill="#AAAAAA" d="M13.777,9.401c-0.096,0-0.189-0.018-0.276-0.054c-0.088-0.037-0.163-0.088-0.226-0.152
		c-0.063-0.063-0.108-0.135-0.146-0.222c-0.036-0.09-0.053-0.183-0.053-0.28c0-0.093,0.017-0.185,0.052-0.275
		c0.039-0.092,0.087-0.165,0.147-0.228c0.062-0.063,0.137-0.115,0.224-0.153C13.587,8,13.682,7.979,13.777,7.979
		c0.098,0,0.188,0.02,0.277,0.057c0.088,0.039,0.159,0.09,0.227,0.153c0.063,0.062,0.111,0.137,0.15,0.225
		c0.03,0.089,0.053,0.182,0.053,0.278c0,0.1-0.021,0.193-0.053,0.278c-0.039,0.088-0.092,0.161-0.152,0.225
		c-0.063,0.063-0.139,0.113-0.227,0.15C13.967,9.383,13.874,9.401,13.777,9.401z M13.413,6.896l-0.063-0.9
		c0-0.216,0.041-0.357,0.127-0.479C13.551,5.408,13.65,5.3,13.771,5.2c0.107-0.093,0.23-0.187,0.365-0.281
		c0.125-0.089,0.234-0.188,0.346-0.295c0.104-0.104,0.188-0.221,0.262-0.358c0.064-0.128,0.098-0.283,0.098-0.46
		c0-0.126-0.023-0.236-0.072-0.336c-0.047-0.1-0.109-0.186-0.197-0.257c-0.084-0.071-0.186-0.126-0.301-0.164
		c-0.117-0.039-0.244-0.058-0.381-0.058c-0.186,0-0.345,0.022-0.476,0.067c-0.134,0.045-0.247,0.097-0.34,0.151
		c-0.093,0.056-0.167,0.106-0.226,0.153c-0.078,0.064-0.146,0.094-0.209,0.094c-0.115,0-0.211-0.055-0.274-0.159l-0.271-0.433
		l0.059-0.056c0.104-0.098,0.22-0.189,0.345-0.276c0.126-0.088,0.267-0.166,0.415-0.233c0.15-0.067,0.313-0.121,0.486-0.16
		c0.172-0.038,0.363-0.058,0.563-0.058c0.268,0,0.518,0.039,0.746,0.117c0.229,0.078,0.43,0.19,0.6,0.334
		c0.17,0.146,0.305,0.324,0.399,0.53c0.097,0.207,0.146,0.442,0.146,0.699c0,0.257-0.039,0.484-0.117,0.674
		c-0.072,0.188-0.176,0.354-0.293,0.496C15.33,5.07,15.2,5.192,15.059,5.297l-0.371,0.28c-0.105,0.083-0.205,0.167-0.283,0.25
		c-0.064,0.074-0.104,0.15-0.113,0.237l-0.104,0.832H13.413z"/>
	<path fill="#555555" d="M13.77,9.322c-0.088,0-0.17-0.016-0.244-0.047c-0.078-0.031-0.146-0.076-0.196-0.134
		c-0.058-0.054-0.099-0.119-0.132-0.197C13.165,8.87,13.15,8.788,13.15,8.696c0-0.083,0.016-0.166,0.047-0.246
		c0.031-0.079,0.074-0.145,0.13-0.201c0.053-0.056,0.118-0.1,0.198-0.135c0.078-0.034,0.16-0.051,0.244-0.051
		c0.086,0,0.168,0.017,0.246,0.05c0.082,0.037,0.146,0.083,0.197,0.136c0.061,0.057,0.104,0.123,0.137,0.2
		c0.028,0.078,0.045,0.161,0.045,0.246c0,0.089-0.017,0.17-0.045,0.247c-0.031,0.076-0.078,0.143-0.138,0.198
		c-0.056,0.057-0.121,0.101-0.196,0.133C13.939,9.307,13.859,9.322,13.77,9.322z M13.498,6.823l-0.077-0.825
		c0-0.197,0.036-0.319,0.112-0.427c0.068-0.101,0.162-0.201,0.277-0.3c0.107-0.092,0.229-0.185,0.356-0.278
		c0.129-0.091,0.247-0.192,0.354-0.303c0.107-0.106,0.201-0.233,0.274-0.376c0.071-0.141,0.106-0.308,0.106-0.496
		c0-0.141-0.025-0.262-0.08-0.37c-0.055-0.111-0.127-0.206-0.219-0.283c-0.092-0.078-0.203-0.138-0.326-0.179
		c-0.125-0.041-0.262-0.062-0.403-0.062c-0.194,0-0.358,0.023-0.5,0.071c-0.142,0.048-0.258,0.101-0.354,0.158
		c-0.097,0.058-0.174,0.11-0.231,0.159c-0.067,0.053-0.115,0.076-0.157,0.076c-0.09,0-0.158-0.041-0.209-0.122L12.2,2.905
		c0.104-0.12,0.216-0.209,0.338-0.295c0.122-0.085,0.255-0.16,0.401-0.225c0.146-0.066,0.303-0.118,0.47-0.155
		c0.17-0.037,0.353-0.056,0.545-0.056c0.262,0,0.497,0.037,0.72,0.111c0.217,0.075,0.409,0.183,0.57,0.319
		c0.16,0.137,0.285,0.302,0.381,0.503c0.09,0.195,0.137,0.418,0.137,0.664c0,0.247-0.037,0.463-0.109,0.644
		c-0.072,0.18-0.168,0.339-0.276,0.475c-0.119,0.14-0.243,0.258-0.371,0.352l-0.371,0.28c-0.11,0.087-0.213,0.172-0.293,0.26
		c-0.079,0.084-0.127,0.179-0.14,0.28l-0.092,0.761H13.498z"/>
	<path fill="#555555" d="M12.221,2.88c0.102-0.094,0.213-0.183,0.334-0.268s0.254-0.16,0.398-0.224
		c0.145-0.065,0.3-0.116,0.467-0.153c0.167-0.037,0.35-0.056,0.542-0.056c0.259,0,0.495,0.037,0.714,0.111
		c0.219,0.075,0.407,0.181,0.566,0.316c0.16,0.137,0.283,0.302,0.375,0.497c0.091,0.195,0.136,0.414,0.136,0.657
		c0,0.246-0.036,0.458-0.108,0.637c-0.074,0.178-0.166,0.335-0.273,0.47c-0.115,0.134-0.237,0.252-0.37,0.35
		c-0.134,0.099-0.257,0.192-0.372,0.28c-0.113,0.088-0.215,0.175-0.296,0.263c-0.083,0.087-0.132,0.185-0.146,0.292L14.1,6.797
		h-0.595l-0.058-0.808V5.936c0-0.136,0.035-0.256,0.109-0.362c0.067-0.104,0.166-0.204,0.272-0.296
		C13.938,5.186,14.059,5.093,14.186,5c0.131-0.092,0.25-0.194,0.359-0.306c0.113-0.112,0.205-0.24,0.279-0.382
		C14.9,4.168,14.938,4,14.938,3.806c0-0.14-0.022-0.266-0.082-0.379c-0.055-0.114-0.129-0.21-0.224-0.29
		c-0.095-0.08-0.206-0.141-0.334-0.183s-0.265-0.063-0.411-0.063c-0.197,0-0.365,0.024-0.508,0.073
		c-0.141,0.048-0.261,0.102-0.357,0.16c-0.098,0.059-0.176,0.112-0.232,0.161c-0.063,0.048-0.104,0.072-0.146,0.072
		c-0.082,0-0.146-0.037-0.189-0.112L12.221,2.88z M13.175,8.694c0-0.084,0.017-0.164,0.046-0.239
		c0.031-0.075,0.072-0.139,0.127-0.194c0.053-0.056,0.117-0.099,0.191-0.132c0.074-0.032,0.154-0.049,0.238-0.049
		c0.086,0,0.164,0.017,0.238,0.049c0.069,0.033,0.141,0.077,0.19,0.132c0.06,0.055,0.103,0.119,0.13,0.194
		c0.029,0.075,0.045,0.154,0.045,0.239c0,0.088-0.016,0.167-0.045,0.24c-0.027,0.073-0.07,0.137-0.13,0.192
		c-0.06,0.056-0.121,0.098-0.19,0.129c-0.074,0.031-0.152,0.046-0.238,0.046c-0.084,0-0.164-0.015-0.238-0.046
		c-0.074-0.03-0.139-0.073-0.191-0.129c-0.055-0.055-0.096-0.119-0.127-0.192C13.189,8.861,13.175,8.783,13.175,8.694z"/>
	<g>
		<path fill="#555555" d="M17.454,12.803c-0.129,0-0.257-0.053-0.351-0.145l-1.42-1.419c-0.414,0.177-0.947,0.213-1.317,0.213
			h-0.959c-3.106,0-5.633-2.526-5.633-5.632s2.527-5.633,5.633-5.633h0.959C17.473,0.188,20,2.716,20,5.821
			c0,0.902-0.206,1.763-0.611,2.558c-0.354,0.695-0.865,1.326-1.479,1.824l0.043,2.104c0,0.2-0.121,0.381-0.309,0.459
			C17.578,12.79,17.514,12.803,17.454,12.803z M15.879,10.23c0.131,0,0.26,0.053,0.352,0.146l0.764,0.76L16.96,9.924
			c0-0.158,0.074-0.306,0.2-0.397c1.173-0.886,1.847-2.237,1.847-3.707c0-2.557-2.081-4.636-4.639-4.636h-0.959
			c-2.558,0-4.636,2.079-4.636,4.636c0,2.557,2.081,4.637,4.636,4.637h0.959c0.47,0,0.929-0.068,1.362-0.203
			C15.785,10.238,15.832,10.23,15.879,10.23z"/>
		<path display="none" fill="#AAAAAA" d="M17.469,12.789c-0.123,0-0.246-0.051-0.338-0.141l-1.422-1.42
			c-0.37,0.146-0.852,0.207-1.334,0.207h-0.961c-3.101,0-5.624-2.521-5.624-5.625s2.523-5.624,5.624-5.624h0.961
			C17.479,0.189,20,2.711,20,5.813c0,0.9-0.205,1.759-0.611,2.553c-0.353,0.693-0.863,1.324-1.478,1.822l0.036,2.123
			c0,0.191-0.116,0.366-0.297,0.441C17.59,12.775,17.527,12.789,17.469,12.789z M15.891,10.251c0.125,0,0.248,0.051,0.338,0.14
			l0.766,0.761V9.924c0-0.15,0.066-0.293,0.189-0.382c1.18-0.891,1.858-2.251,1.858-3.73c0-2.573-2.095-4.665-4.667-4.665h-0.961
			c-2.572,0-4.665,2.092-4.665,4.665s2.093,4.666,4.665,4.666h0.961c0.468,0,0.932-0.068,1.372-0.204
			C15.792,10.261,15.84,10.251,15.891,10.251z"/>
		<path fill="#555555" d="M17.454,12.704c-0.104,0-0.207-0.042-0.283-0.116l-1.419-1.418c-0.438,0.124-0.91,0.186-1.386,0.186
			h-0.959c-3.051,0-5.533-2.479-5.533-5.534c0-3.051,2.482-5.533,5.533-5.533h0.959c3.052,0,5.534,2.482,5.534,5.532
			c0,0.888-0.203,1.733-0.604,2.511c-0.347,0.683-0.85,1.303-1.451,1.793l0.008,2.18c0,0.16-0.1,0.307-0.248,0.369
			C17.551,12.693,17.501,12.704,17.454,12.704z M15.877,10.332c0.105,0,0.209,0.042,0.283,0.116l0.928,0.928l-0.033-1.451
			c0-0.125,0.063-0.244,0.159-0.317c1.2-0.907,1.89-2.287,1.89-3.787c0-2.611-2.125-4.735-4.734-4.735H13.41
			c-2.611,0-4.735,2.124-4.735,4.735c0,2.612,2.124,4.738,4.735,4.738h0.959c0.475,0,0.941-0.071,1.393-0.207
			C15.796,10.338,15.836,10.332,15.877,10.332z"/>
		<path fill="#555555" d="M14.375,0.289h-0.961c-3.047,0-5.524,2.478-5.524,5.524s2.477,5.525,5.524,5.525h0.961
			c0.477,0,0.947-0.061,1.402-0.18l1.422,1.42c0.072,0.07,0.17,0.111,0.27,0.111c0.049,0,0.098-0.015,0.145-0.029
			c0.146-0.061,0.236-0.199,0.236-0.352V10.11c0.604-0.489,1.104-1.104,1.451-1.791c0.399-0.78,0.6-1.623,0.6-2.507
			C19.9,2.767,17.422,0.289,14.375,0.289z M17.24,9.623c-0.096,0.07-0.152,0.183-0.152,0.302v1.468l-0.93-0.93
			c-0.072-0.072-0.17-0.111-0.27-0.111c-0.037,0-0.074,0.006-0.113,0.02c-0.449,0.137-0.924,0.207-1.4,0.207h-0.961
			c-2.625,0-4.764-2.138-4.764-4.766c0-2.626,2.139-4.764,4.764-4.764h0.961c2.628,0,4.766,2.138,4.766,4.764
			C19.141,7.323,18.447,8.711,17.24,9.623z"/>
	</g>
</g>
</svg>
