<?xml version="1.0" encoding="utf-8"?>
<!-- Generator: Adobe Illustrator 16.0.0, SVG Export Plug-In . SVG Version: 6.00 Build 0)  -->
<!DOCTYPE svg PUBLIC "-//W3C//DTD SVG 1.1//EN" "http://www.w3.org/Graphics/SVG/1.1/DTD/svg11.dtd">
<svg version="1.1" id="레이어_1" xmlns="http://www.w3.org/2000/svg" xmlns:xlink="http://www.w3.org/1999/xlink" x="0px"
	 y="0px" width="20px" height="20px" viewBox="0 0 20 20" enable-background="new 0 0 20 20" xml:space="preserve">
<g>
	<g>
		<path fill="#555555" d="M6.865,19.763c-0.114,0-0.222-0.045-0.303-0.127L5,18.074l-2.24,0.017c-1.494,0-2.71-1.216-2.71-2.711
			V9.526c0-1.494,1.216-2.71,2.71-2.71h3.839c0.236,0,0.429,0.193,0.429,0.429S6.835,7.674,6.599,7.674H2.76
			c-1.021,0-1.852,0.831-1.852,1.852v5.854c0,1.021,0.831,1.852,1.852,1.852h2.47c0.17,0,0.324,0.102,0.393,0.259l0.728,0.725
			l0.086-0.554c0-0.237,0.193-0.43,0.429-0.43h4.104c1.021,0,1.851-0.83,1.851-1.852v-2.623c0-0.237,0.192-0.43,0.429-0.43
			c0.232,0,0.429,0.197,0.429,0.43v2.623c0,1.495-1.215,2.711-2.708,2.711H7.344l-0.05,1.242c0,0.175-0.107,0.333-0.266,0.394
			C6.973,19.751,6.918,19.763,6.865,19.763z"/>
		<path fill="#555555" d="M6.871,19.714c-0.106,0-0.206-0.041-0.282-0.114l-1.558-1.56l-2.256,0.006c-1.476,0-2.676-1.2-2.676-2.677
			V9.527c0-1.475,1.2-2.675,2.676-2.675h3.832c0.22,0,0.399,0.179,0.399,0.399c0,0.22-0.18,0.399-0.4,0.399H2.774
			c-1.036,0-1.877,0.842-1.877,1.877v5.842c0,1.033,0.842,1.874,1.877,1.874h2.465c0.159,0,0.302,0.095,0.366,0.241l0.9,0.896
			l-0.033-0.736c0-0.226,0.18-0.401,0.4-0.401h4.096c1.034,0,1.876-0.841,1.876-1.874v-2.618c0-0.22,0.18-0.399,0.398-0.399
			c0.218,0,0.398,0.184,0.4,0.399v2.618c0,1.477-1.199,2.677-2.677,2.677H7.251l0.02,1.269c0,0.164-0.097,0.313-0.247,0.369
			C6.975,19.703,6.923,19.714,6.871,19.714z"/>
		<path fill="#555555" d="M13.25,12.376c-0.209,0-0.38,0.172-0.38,0.381v2.623c0,1.048-0.853,1.897-1.899,1.897H6.866
			c-0.21,0-0.38,0.172-0.38,0.382l-0.001,0.756l-0.907-0.908c-0.058-0.133-0.193-0.229-0.348-0.229H2.76
			c-1.048,0-1.901-0.852-1.901-1.896V9.526c0-1.048,0.853-1.901,1.901-1.901h3.839c0.208,0,0.38-0.17,0.38-0.38
			s-0.171-0.38-0.38-0.38H2.76c-1.467,0-2.661,1.193-2.661,2.661v5.854c0,1.468,1.194,2.662,2.661,2.662h2.275l1.561,1.562
			c0.073,0.071,0.169,0.11,0.269,0.11c0.049,0,0.098-0.01,0.146-0.03c0.143-0.058,0.235-0.19,0.235-0.351v-1.291h3.727
			c1.465,0,2.659-1.194,2.659-2.662v-2.623C13.63,12.548,13.46,12.376,13.25,12.376z"/>
	</g>
</g>
<g>
	<g>
		<path fill="#555555" d="M3.547,14.085c-0.22,0-0.399-0.181-0.399-0.397s0.179-0.396,0.399-0.396h7.006
			c0.219,0,0.396,0.18,0.396,0.396c0,0.222-0.18,0.397-0.396,0.397H3.547z"/>
		<path fill="#555555" d="M10.553,13.309H3.532c-0.21,0-0.38,0.172-0.38,0.381s0.17,0.381,0.38,0.381h7.021
			c0.207,0,0.379-0.172,0.379-0.381S10.76,13.309,10.553,13.309z"/>
	</g>
</g>
<g>
	<path fill="#555555" d="M3.547,11.507c-0.22,0-0.399-0.179-0.399-0.396c0-0.221,0.179-0.398,0.399-0.398h4.538
		c0.22,0,0.399,0.18,0.399,0.398s-0.179,0.396-0.399,0.396H3.547z"/>
	<path fill="#555555" d="M8.081,10.729H3.532c-0.21,0-0.38,0.172-0.38,0.381s0.17,0.379,0.38,0.379h4.549
		c0.209,0,0.38-0.17,0.38-0.379S8.29,10.729,8.081,10.729z"/>
</g>
<g>
	<path display="none" fill="#AAAAAA" d="M13.777,9.401c-0.096,0-0.189-0.018-0.276-0.054c-0.088-0.037-0.163-0.088-0.226-0.152
		c-0.063-0.063-0.108-0.135-0.146-0.222c-0.036-0.09-0.053-0.183-0.053-0.28c0-0.093,0.017-0.185,0.052-0.275
		c0.039-0.092,0.087-0.165,0.147-0.228c0.062-0.063,0.137-0.115,0.224-0.153C13.587,8,13.682,7.979,13.777,7.979
		c0.098,0,0.188,0.02,0.277,0.057c0.088,0.039,0.158,0.09,0.227,0.153c0.063,0.062,0.111,0.137,0.15,0.225
		c0.029,0.089,0.053,0.182,0.053,0.278c0,0.1-0.021,0.193-0.053,0.278c-0.039,0.088-0.093,0.161-0.152,0.225
		c-0.063,0.063-0.139,0.113-0.227,0.15C13.967,9.383,13.874,9.401,13.777,9.401z M13.413,6.896l-0.063-0.9
		c0-0.216,0.041-0.357,0.127-0.479C13.551,5.408,13.65,5.3,13.771,5.2c0.106-0.093,0.229-0.187,0.365-0.281
		c0.125-0.089,0.233-0.188,0.346-0.295c0.104-0.104,0.188-0.221,0.262-0.358c0.064-0.128,0.098-0.283,0.098-0.46
		c0-0.126-0.023-0.236-0.072-0.336c-0.047-0.1-0.108-0.186-0.197-0.257c-0.084-0.071-0.186-0.126-0.301-0.164
		c-0.117-0.039-0.244-0.058-0.381-0.058c-0.186,0-0.345,0.022-0.476,0.067c-0.134,0.045-0.247,0.097-0.34,0.151
		c-0.093,0.056-0.167,0.106-0.226,0.153c-0.078,0.064-0.146,0.094-0.209,0.094c-0.115,0-0.211-0.055-0.274-0.159l-0.271-0.433
		l0.059-0.056c0.104-0.098,0.22-0.189,0.345-0.276c0.126-0.088,0.267-0.166,0.415-0.233c0.15-0.067,0.313-0.121,0.486-0.16
		c0.172-0.038,0.363-0.058,0.563-0.058c0.268,0,0.518,0.039,0.746,0.117c0.229,0.078,0.43,0.19,0.6,0.334
		c0.17,0.146,0.305,0.324,0.399,0.53c0.097,0.207,0.146,0.442,0.146,0.699c0,0.257-0.039,0.484-0.117,0.674
		c-0.071,0.188-0.176,0.354-0.293,0.496C15.33,5.07,15.2,5.192,15.059,5.297l-0.371,0.28c-0.104,0.083-0.205,0.167-0.283,0.25
		c-0.063,0.074-0.104,0.15-0.112,0.237l-0.104,0.832H13.413z"/>
	<path display="none" fill="#555555" d="M13.77,9.322c-0.088,0-0.17-0.016-0.244-0.047c-0.078-0.031-0.146-0.076-0.195-0.134
		c-0.059-0.054-0.1-0.119-0.133-0.197C13.165,8.87,13.15,8.788,13.15,8.696c0-0.083,0.016-0.166,0.047-0.246
		c0.031-0.079,0.074-0.145,0.13-0.201c0.053-0.056,0.118-0.1,0.198-0.135c0.078-0.034,0.16-0.051,0.244-0.051
		c0.086,0,0.168,0.017,0.246,0.05c0.082,0.037,0.146,0.083,0.196,0.136c0.062,0.057,0.104,0.123,0.138,0.2
		c0.027,0.078,0.045,0.161,0.045,0.246c0,0.089-0.018,0.17-0.045,0.247c-0.031,0.076-0.078,0.143-0.139,0.198
		c-0.057,0.057-0.121,0.101-0.195,0.133C13.939,9.307,13.859,9.322,13.77,9.322z M13.498,6.823l-0.077-0.825
		c0-0.197,0.036-0.319,0.112-0.427c0.068-0.101,0.162-0.201,0.277-0.3c0.106-0.092,0.229-0.185,0.355-0.278
		c0.129-0.091,0.247-0.192,0.354-0.303c0.107-0.106,0.201-0.233,0.274-0.376C14.865,4.173,14.9,4.006,14.9,3.818
		c0-0.141-0.025-0.262-0.08-0.37c-0.055-0.111-0.127-0.206-0.219-0.283c-0.093-0.078-0.203-0.138-0.326-0.179
		c-0.125-0.041-0.262-0.062-0.403-0.062c-0.194,0-0.358,0.023-0.5,0.071c-0.142,0.048-0.259,0.101-0.354,0.158
		c-0.097,0.058-0.174,0.11-0.23,0.159c-0.066,0.053-0.115,0.076-0.157,0.076c-0.09,0-0.157-0.041-0.209-0.122L12.2,2.905
		c0.104-0.12,0.216-0.209,0.338-0.295c0.122-0.085,0.255-0.16,0.401-0.225c0.146-0.066,0.303-0.118,0.47-0.155
		c0.17-0.037,0.353-0.056,0.545-0.056c0.262,0,0.497,0.037,0.72,0.111c0.217,0.075,0.409,0.183,0.57,0.319
		c0.16,0.137,0.285,0.302,0.381,0.503c0.09,0.195,0.137,0.418,0.137,0.664c0,0.247-0.037,0.463-0.109,0.644
		c-0.071,0.18-0.168,0.339-0.275,0.475c-0.119,0.14-0.243,0.258-0.371,0.352l-0.371,0.28c-0.109,0.087-0.213,0.172-0.293,0.26
		c-0.078,0.084-0.127,0.179-0.14,0.28l-0.093,0.761H13.498z"/>
	<path fill="#555555" d="M12.375,3.129c0.093-0.085,0.194-0.167,0.305-0.245s0.231-0.146,0.363-0.204
		c0.132-0.059,0.274-0.106,0.427-0.14s0.318-0.051,0.494-0.051c0.236,0,0.452,0.033,0.651,0.101c0.2,0.068,0.372,0.165,0.518,0.288
		c0.146,0.125,0.258,0.276,0.342,0.454c0.083,0.178,0.124,0.378,0.124,0.6c0,0.225-0.033,0.418-0.099,0.582
		c-0.068,0.163-0.151,0.306-0.249,0.429c-0.105,0.122-0.217,0.23-0.338,0.319c-0.122,0.09-0.234,0.175-0.339,0.255
		c-0.103,0.081-0.196,0.16-0.271,0.24c-0.076,0.08-0.12,0.169-0.134,0.267l-0.08,0.68h-0.543l-0.053-0.737V5.919
		c0-0.125,0.032-0.233,0.1-0.33c0.062-0.095,0.152-0.187,0.248-0.271c0.1-0.084,0.211-0.169,0.326-0.254
		c0.12-0.083,0.229-0.177,0.328-0.279c0.104-0.102,0.188-0.219,0.255-0.349c0.069-0.131,0.104-0.285,0.104-0.461
		c0-0.128-0.02-0.243-0.075-0.347c-0.05-0.104-0.117-0.191-0.204-0.264c-0.086-0.073-0.188-0.129-0.305-0.167
		c-0.116-0.039-0.241-0.058-0.375-0.058c-0.18,0-0.333,0.022-0.464,0.066c-0.128,0.044-0.237,0.093-0.326,0.146
		c-0.089,0.054-0.16,0.102-0.211,0.147c-0.058,0.043-0.096,0.065-0.133,0.065c-0.075,0-0.134-0.034-0.173-0.102L12.375,3.129z
		 M13.246,8.436c0-0.077,0.015-0.15,0.041-0.218c0.029-0.069,0.066-0.127,0.116-0.178c0.048-0.051,0.107-0.09,0.175-0.12
		c0.067-0.029,0.141-0.044,0.218-0.044c0.078,0,0.149,0.016,0.217,0.044c0.063,0.03,0.129,0.07,0.173,0.12
		c0.056,0.051,0.095,0.109,0.119,0.178c0.025,0.068,0.041,0.14,0.041,0.218c0,0.081-0.016,0.152-0.041,0.219
		c-0.024,0.066-0.063,0.125-0.119,0.175c-0.055,0.051-0.11,0.089-0.173,0.118c-0.067,0.028-0.139,0.042-0.217,0.042
		c-0.077,0-0.15-0.014-0.218-0.042c-0.067-0.027-0.127-0.066-0.175-0.118c-0.05-0.05-0.087-0.109-0.116-0.175
		C13.259,8.588,13.246,8.518,13.246,8.436z"/>
	<g>
		<path fill="#555555" d="M17.454,12.732c-0.11,0-0.221-0.045-0.302-0.124l-1.419-1.419c-0.479,0.156-1,0.192-1.367,0.192h-0.959
			c-3.067,0-5.563-2.495-5.563-5.562c0-3.067,2.496-5.563,5.563-5.563h0.959c3.067,0.001,5.563,2.497,5.563,5.564
			c0,0.891-0.203,1.741-0.604,2.526c-0.349,0.686-0.854,1.309-1.46,1.802l0.017,2.159c0,0.171-0.104,0.326-0.266,0.394
			C17.562,12.722,17.505,12.732,17.454,12.732z M15.879,10.3c0.113,0,0.223,0.046,0.302,0.125l0.89,0.883l-0.04-1.387
			c0-0.133,0.063-0.261,0.171-0.338c1.192-0.9,1.876-2.272,1.876-3.764c0-2.595-2.112-4.706-4.709-4.706h-0.959
			c-2.595,0-4.706,2.111-4.706,4.706c0,2.596,2.111,4.708,4.706,4.708h0.959c0.479,0,0.944-0.07,1.383-0.207
			C15.8,10.307,15.84,10.3,15.879,10.3z"/>
		<path fill="#555555" d="M17.454,12.704c-0.104,0-0.207-0.042-0.283-0.116l-1.419-1.418c-0.438,0.124-0.91,0.186-1.386,0.186
			h-0.959c-3.051,0-5.533-2.479-5.533-5.534c0-3.051,2.482-5.533,5.533-5.533h0.959c3.052,0,5.534,2.482,5.534,5.532
			c0,0.888-0.203,1.733-0.604,2.511c-0.347,0.683-0.851,1.303-1.45,1.793l0.008,2.18c0,0.16-0.101,0.307-0.248,0.369
			C17.551,12.693,17.501,12.704,17.454,12.704z M15.877,10.332c0.105,0,0.209,0.042,0.283,0.116l0.928,0.928l-0.033-1.451
			c0-0.125,0.063-0.244,0.159-0.317c1.2-0.907,1.89-2.287,1.89-3.787c0-2.611-2.125-4.735-4.733-4.735h-0.96
			c-2.611,0-4.735,2.124-4.735,4.735c0,2.612,2.124,4.738,4.735,4.738h0.959c0.475,0,0.941-0.071,1.393-0.207
			C15.796,10.338,15.836,10.332,15.877,10.332z"/>
	</g>
</g>
</svg>
