<?xml version="1.0" encoding="utf-8"?>
<!-- Generator: Adobe Illustrator 16.0.0, SVG Export Plug-In . SVG Version: 6.00 Build 0)  -->
<!DOCTYPE svg PUBLIC "-//W3C//DTD SVG 1.1//EN" "http://www.w3.org/Graphics/SVG/1.1/DTD/svg11.dtd">
<svg version="1.1" id="레이어_1" xmlns="http://www.w3.org/2000/svg" xmlns:xlink="http://www.w3.org/1999/xlink" x="0px"
	 y="0px" width="75px" height="20px" viewBox="0 0 75 20" enable-background="new 0 0 75 20" xml:space="preserve">
<path fill="#FFE221" d="M65,0H10C4.477,0,0,4.477,0,10c0,5.523,4.477,10,10,10h55c5.523,0,10-4.477,10-10C75,4.477,70.523,0,65,0z"
	/>
<g>
	<path fill="#434343" d="M8.874,14.693V4.302h4.48c1.179,0,2.101,0.306,2.767,0.918c0.666,0.612,0.999,1.37,0.999,2.274
		c0,0.736-0.252,1.368-0.756,1.896s-0.985,0.812-1.444,0.852c0.306,0.2,0.535,0.394,0.688,0.582
		c0.153,0.188,0.279,0.415,0.378,0.678c0.216,0.552,0.447,1.147,0.695,1.788c0.247,0.64,0.538,1.107,0.871,1.403h-2.969
		c-0.351-0.296-0.603-0.766-0.755-1.41c-0.153-0.644-0.324-1.218-0.513-1.722c-0.09-0.247-0.213-0.474-0.371-0.678
		c-0.157-0.204-0.299-0.306-0.425-0.306h-0.904v3.276c0,0.248-0.108,0.45-0.324,0.606c-0.216,0.155-0.468,0.233-0.756,0.233H8.874z
		 M14.379,7.494c0-0.416-0.115-0.74-0.344-0.972c-0.229-0.232-0.501-0.348-0.816-0.348h-1.606v2.64h1.606
		c0.315,0,0.587-0.116,0.816-0.348S14.379,7.91,14.379,7.494z"/>
	<path fill="#434343" d="M23.934,14.693l-0.634-1.872h-3.09l-0.648,1.872h-2.82l3.873-10.392h2.267l3.887,10.392H23.934z
		 M21.815,7.974c-0.018,0.056-0.043,0.144-0.074,0.264c-0.032,0.12-0.056,0.212-0.074,0.276l-0.85,2.544h1.93l-0.81-2.544
		c-0.018-0.064-0.039-0.156-0.061-0.276C21.853,8.118,21.833,8.03,21.815,7.974z"/>
	<path fill="#434343" d="M33.029,14.693l-3.428-5.412C29.583,9.242,29.552,9.148,29.507,9c-0.045-0.148-0.081-0.242-0.108-0.282
		c0.009,0.056,0.022,0.166,0.041,0.33s0.027,0.27,0.027,0.318v4.488c0,0.248-0.108,0.45-0.324,0.606
		c-0.216,0.155-0.468,0.233-0.756,0.233h-1.66V4.302h2.469l3.36,5.292c0.036,0.048,0.076,0.142,0.122,0.282
		c0.045,0.14,0.085,0.242,0.122,0.306c0-0.064-0.009-0.168-0.027-0.312s-0.027-0.244-0.027-0.3V4.302h2.753v9.552
		c0,0.248-0.108,0.45-0.324,0.606c-0.216,0.155-0.468,0.233-0.756,0.233H33.029z"/>
	<path fill="#434343" d="M39.033,14.46c-0.215,0.155-0.467,0.233-0.755,0.233h-1.66V4.302h2.739v4.524l3.131-4.524h3.078
		l-3.604,4.872l3.873,5.52H42.84L39.357,9.57v4.284C39.357,14.102,39.25,14.304,39.033,14.46z"/>
	<path fill="#434343" d="M45.931,4.302h2.738v9.552c0,0.248-0.107,0.45-0.322,0.606c-0.217,0.155-0.469,0.233-0.756,0.233h-1.66
		V4.302z"/>
	<path fill="#434343" d="M55.983,14.693l-3.428-5.412c-0.018-0.04-0.05-0.134-0.094-0.282c-0.046-0.148-0.081-0.242-0.108-0.282
		c0.009,0.056,0.022,0.166,0.04,0.33c0.019,0.164,0.027,0.27,0.027,0.318v4.488c0,0.248-0.107,0.45-0.324,0.606
		c-0.216,0.155-0.468,0.233-0.755,0.233h-1.66V4.302h2.47l3.36,5.292c0.035,0.048,0.076,0.142,0.121,0.282
		c0.045,0.14,0.085,0.242,0.121,0.306c0-0.064-0.009-0.168-0.026-0.312C55.709,9.726,55.7,9.625,55.7,9.57V4.302h2.753v9.552
		c0,0.248-0.108,0.45-0.324,0.606c-0.216,0.155-0.468,0.233-0.755,0.233H55.983z"/>
	<path fill="#434343" d="M63.108,8.922h4.67v1.608c0,1.52-0.36,2.62-1.08,3.3c-0.72,0.68-1.804,1.02-3.252,1.02
		c-1.044,0-1.933-0.29-2.665-0.87c-0.733-0.58-1.194-1.362-1.384-2.346c-0.107-0.567-0.175-1.264-0.202-2.088
		c-0.027-0.824,0.018-1.56,0.135-2.208c0.189-1.032,0.682-1.822,1.478-2.37c0.797-0.548,1.685-0.822,2.665-0.822
		c1.134,0,2.117,0.326,2.949,0.978c0.832,0.652,1.279,1.454,1.343,2.406h-2.753c-0.09-0.48-0.281-0.852-0.574-1.116
		c-0.292-0.264-0.604-0.396-0.938-0.396s-0.652,0.152-0.958,0.456c-0.306,0.304-0.495,0.784-0.566,1.44
		c-0.046,0.408-0.062,0.946-0.048,1.614s0.043,1.182,0.088,1.542c0.072,0.56,0.231,1.018,0.479,1.373
		c0.247,0.356,0.573,0.534,0.978,0.534c0.504,0,0.894-0.16,1.168-0.479c0.274-0.32,0.411-0.788,0.411-1.404v-0.42h-1.16
		c-0.261,0-0.457-0.052-0.587-0.156c-0.131-0.104-0.196-0.272-0.196-0.504V8.922z"/>
</g>
</svg>
