<?xml version="1.0" encoding="utf-8"?>
<!-- Generator: Adobe Illustrator 16.0.0, SVG Export Plug-In . SVG Version: 6.00 Build 0)  -->
<!DOCTYPE svg PUBLIC "-//W3C//DTD SVG 1.1//EN" "http://www.w3.org/Graphics/SVG/1.1/DTD/svg11.dtd">
<svg version="1.1" id="레이어_1" xmlns="http://www.w3.org/2000/svg" xmlns:xlink="http://www.w3.org/1999/xlink" x="0px"
	 y="0px" width="50px" height="50px" viewBox="0 0 50 50" enable-background="new 0 0 50 50" xml:space="preserve">
<path fill="#888888" d="M21.963,43.927C9.853,43.927,0,34.075,0,21.964C0,9.854,9.853,0,21.963,0
	c12.112,0,21.963,9.853,21.963,21.963C43.927,34.075,34.075,43.927,21.963,43.927z M21.963,3.215
	c-10.338,0-18.749,8.411-18.749,18.75s8.411,18.75,18.749,18.75c10.339,0,18.75-8.411,18.75-18.75
	C40.714,11.625,32.303,3.215,21.963,3.215z"/>
<path fill="#888888" d="M48.393,50c-0.429,0-0.832-0.168-1.136-0.472L35.388,37.66c-0.304-0.303-0.471-0.706-0.471-1.136
	s0.167-0.833,0.471-1.137s0.707-0.471,1.136-0.471c0.43,0,0.833,0.167,1.137,0.471l11.869,11.869C49.833,47.561,50,47.964,50,48.393
	c0,0.43-0.167,0.833-0.471,1.136C49.225,49.832,48.822,50,48.393,50z"/>
</svg>
