<?xml version="1.0" encoding="utf-8"?>
<!-- Generator: Adobe Illustrator 16.0.0, SVG Export Plug-In . SVG Version: 6.00 Build 0)  -->
<!DOCTYPE svg PUBLIC "-//W3C//DTD SVG 1.1//EN" "http://www.w3.org/Graphics/SVG/1.1/DTD/svg11.dtd">
<svg version="1.1" id="레이어_1" xmlns="http://www.w3.org/2000/svg" xmlns:xlink="http://www.w3.org/1999/xlink" x="0px"
	 y="0px" width="16px" height="16px" viewBox="0 0 16 16" enable-background="new 0 0 16 16" xml:space="preserve">
<path fill="#AAAAAA" d="M7.085,6.074C7.085,6.585,6.671,7,6.16,7H1.011C0.5,7,0.085,6.585,0.085,6.074V0.926
	C0.085,0.414,0.5,0,1.011,0H6.16c0.512,0,0.926,0.414,0.926,0.926V6.074z"/>
<path fill="#AAAAAA" d="M16,6.074C16,6.585,15.586,7,15.074,7H9.926C9.414,7,9,6.585,9,6.074V0.926C9,0.414,9.414,0,9.926,0h5.148
	C15.586,0,16,0.414,16,0.926V6.074z"/>
<path fill="#AAAAAA" d="M7.042,15.074C7.042,15.586,6.628,16,6.117,16H0.968c-0.512,0-0.926-0.414-0.926-0.926V9.926
	C0.042,9.414,0.457,9,0.968,9h5.148c0.512,0,0.926,0.414,0.926,0.926V15.074z"/>
<path fill="#AAAAAA" d="M15.957,15.074c0,0.512-0.414,0.926-0.926,0.926H9.883c-0.512,0-0.926-0.414-0.926-0.926V9.926
	C8.957,9.414,9.371,9,9.883,9h5.148c0.512,0,0.926,0.414,0.926,0.926V15.074z"/>
</svg>
