<?xml version="1.0" encoding="utf-8"?>
<!-- Generator: Adobe Illustrator 16.0.0, SVG Export Plug-In . SVG Version: 6.00 Build 0)  -->
<!DOCTYPE svg PUBLIC "-//W3C//DTD SVG 1.1//EN" "http://www.w3.org/Graphics/SVG/1.1/DTD/svg11.dtd">
<svg version="1.1" id="_x31__x2C_5_px" xmlns="http://www.w3.org/2000/svg" xmlns:xlink="http://www.w3.org/1999/xlink" x="0px"
	 y="0px" width="50px" height="50px" viewBox="231 231 50 50" enable-background="new 231 231 50 50" xml:space="preserve">
<path fill="#AAAAAA" d="M254.902,279.8c-1.581,0-2.866-1.278-2.866-2.85c0-0.557,0.155-1.082,0.447-1.519l10.995-17.867
	c0.499-0.843,1.434-1.364,2.44-1.364s1.943,0.527,2.443,1.378l11.009,17.882c0.278,0.415,0.429,0.941,0.429,1.49
	c0,1.571-1.286,2.85-2.866,2.85H254.902z M265.918,257.925c-0.474,0-0.806,0.271-0.958,0.524l-11.2,18.304v0.197
	c0,0.62,0.512,1.125,1.142,1.125h22.031c0.629,0,1.142-0.505,1.142-1.125c0-0.155-0.029-0.38-0.167-0.571l-11.024-17.907
	C266.694,258.137,266.323,257.925,265.918,257.925z"/>
<path fill="#AAAAAA" d="M265.918,270.425c-0.476,0-0.862-0.387-0.862-0.862v-4.167c0-0.476,0.387-0.862,0.862-0.862
	c0.475,0,0.861,0.387,0.861,0.862v4.167C266.78,270.038,266.393,270.425,265.918,270.425z"/>
<circle fill="#AAAAAA" cx="265.918" cy="274.771" r="0.862"/>
<path fill="#AAAAAA" d="M237.231,274.55c-2.773,0-5.029-2.256-5.029-5.029v-32.292c0-2.773,2.256-5.029,5.029-5.029h23.958
	c2.773,0,5.029,2.256,5.029,5.029v14.75c0,0.476-0.387,0.862-0.862,0.862s-0.862-0.387-0.862-0.862v-14.75
	c0-1.822-1.482-3.304-3.305-3.304h-23.958c-1.822,0-3.304,1.482-3.304,3.304v32.292c0,1.822,1.482,3.305,3.304,3.305h11.625
	c0.476,0,0.862,0.387,0.862,0.862s-0.387,0.862-0.862,0.862H237.231z"/>
<path fill="#AAAAAA" d="M240.314,250.591c-0.476,0-0.862-0.387-0.862-0.862s0.387-0.862,0.862-0.862h16.792
	c0.476,0,0.862,0.387,0.862,0.862s-0.387,0.862-0.862,0.862H240.314z"/>
<path fill="#AAAAAA" d="M240.314,258.925c-0.476,0-0.862-0.387-0.862-0.862s0.387-0.862,0.862-0.862h11.458
	c0.476,0,0.862,0.387,0.862,0.862s-0.387,0.862-0.862,0.862H240.314z"/>
<path fill="#AAAAAA" d="M240.314,242.258c-0.476,0-0.862-0.387-0.862-0.862s0.387-0.862,0.862-0.862h9.375
	c0.476,0,0.862,0.387,0.862,0.862s-0.387,0.862-0.862,0.862H240.314z"/>
</svg>
